<svg xmlns="http://www.w3.org/2000/svg" width="101.327" height="36.011" viewBox="0 0 101.327 36.011"><defs><style>.a{fill:#fefefe;fill-rule:evenodd;}</style></defs><path class="a" d="M65.168,36.217h.108V.206h-.108Z" transform="translate(-5.647 -0.206)"/><g transform="translate(0 2.595)"><path class="a" d="M5.158,33.561a1.877,1.877,0,0,1-.733,1.569,2.951,2.951,0,0,1-1.865.57A3.427,3.427,0,0,1,0,34.769l.886-.891a2.284,2.284,0,0,0,1.693.594q1.24,0,1.24-.871a.77.77,0,0,0-.207-.589,1.138,1.138,0,0,0-.63-.253l-.847-.119a1.853,1.853,0,0,1-1.86-1.97,1.978,1.978,0,0,1,.659-1.55,2.577,2.577,0,0,1,1.782-.589,3.112,3.112,0,0,1,2.264.822l-.866.861a1.985,1.985,0,0,0-1.437-.485,1.16,1.16,0,0,0-.8.252.822.822,0,0,0-.28.639.677.677,0,0,0,.221.515,1.141,1.141,0,0,0,.635.267l.827.119a2.42,2.42,0,0,1,1.339.544A1.967,1.967,0,0,1,5.158,33.561Z" transform="translate(0 -5.115)"/><path class="a" d="M11.257,35.826h-1.25V35.35a1.678,1.678,0,0,1-1.28.535,1.63,1.63,0,0,1-1.211-.455,1.987,1.987,0,0,1-.522-1.465v-3.3h1.29v3.119a.939.939,0,0,0,.272.733.8.8,0,0,0,.564.208.81.81,0,0,0,.574-.208.94.94,0,0,0,.272-.733V30.667h1.29Z" transform="translate(-0.606 -5.3)"/><path class="a" d="M17.153,34.2a1.46,1.46,0,0,1-.63,1.267,2.627,2.627,0,0,1-1.545.416,4.4,4.4,0,0,1-1.171-.129,2.354,2.354,0,0,1-1.014-.614l.837-.842A1.844,1.844,0,0,0,15,34.78q.905,0,.906-.534,0-.426-.541-.476l-.807-.079q-1.5-.148-1.5-1.446a1.461,1.461,0,0,1,.6-1.228,2.224,2.224,0,0,1,1.378-.416,2.769,2.769,0,0,1,1.959.6l-.788.8a1.738,1.738,0,0,0-1.191-.347q-.728,0-.728.5,0,.4.531.446l.807.079q1.525.148,1.526,1.515" transform="translate(-1.109 -5.294)"/><path class="a" d="M21.113,35.7h-.7a1.417,1.417,0,0,1-1.132-.466,1.48,1.48,0,0,1-.354-1.01V31.665h-.541v-.98h.541V29.16h1.29v1.525h.9v.98h-.9v2.475q0,.465.438.465h.458Z" transform="translate(-1.593 -5.169)"/><path class="a" d="M25.669,32.76a1.441,1.441,0,0,0-.118-.555.953.953,0,0,0-1.713,0,1.434,1.434,0,0,0-.118.555Zm1.26.881H23.72a1.158,1.158,0,0,0,.3.832,1.077,1.077,0,0,0,.822.317A1.578,1.578,0,0,0,26,34.305l.778.762a2.792,2.792,0,0,1-.827.6,2.728,2.728,0,0,1-1.122.208q-2.373,0-2.372-2.644a2.871,2.871,0,0,1,.62-1.951,2.041,2.041,0,0,1,1.614-.683,2.078,2.078,0,0,1,1.654.7,2.6,2.6,0,0,1,.581,1.763Z" transform="translate(-1.946 -5.294)"/><path class="a" d="M33.016,35.82h-1.29V32.7a.937.937,0,0,0-.274-.733.8.8,0,0,0-.568-.208.817.817,0,0,0-.577.208.937.937,0,0,0-.274.733V35.82h-1.28V30.661H30v.476a1.678,1.678,0,0,1,1.28-.535,1.631,1.631,0,0,1,1.211.456,1.988,1.988,0,0,1,.522,1.465Z" transform="translate(-2.492 -5.294)"/><path class="a" d="M37.311,35.7h-.7a1.417,1.417,0,0,1-1.132-.466,1.48,1.48,0,0,1-.354-1.01V31.665h-.541v-.98h.541V29.16h1.29v1.525h.9v.98h-.9v2.475q0,.465.438.465h.458Z" transform="translate(-2.997 -5.169)"/><path class="a" d="M41.5,33.919v-.277H40.5q-.714,0-.715.584t.734.594a.976.976,0,0,0,.871-.327,1.077,1.077,0,0,0,.117-.574Zm1.289,1.9h-1.25v-.446a1.7,1.7,0,0,1-1.26.5,1.734,1.734,0,0,1-1.3-.446,1.6,1.6,0,0,1-.433-1.168A1.412,1.412,0,0,1,39,33.181a1.827,1.827,0,0,1,1.3-.421H41.5V32.5q0-.812-.951-.812a1.223,1.223,0,0,0-.981.426l-.814-.8a2,2,0,0,1,.8-.564,3.055,3.055,0,0,1,1.053-.149q2.185,0,2.185,1.822Z" transform="translate(-3.341 -5.294)"/><path class="a" d="M47.8,33.062a3.177,3.177,0,0,0-.107-.98.815.815,0,0,0-1.5,0,4.545,4.545,0,0,0,0,1.961.809.809,0,0,0,1.5,0,3.177,3.177,0,0,0,.107-.98m1.289,0a7.549,7.549,0,0,1-.069,1.188,1.785,1.785,0,0,1-.453.99,1.684,1.684,0,0,1-1.25.465,1.644,1.644,0,0,1-1.28-.545v.485H44.8V28.6h1.29v2.347a1.578,1.578,0,0,1,1.236-.515,1.674,1.674,0,0,1,1.246.465,1.786,1.786,0,0,1,.451.99,7.447,7.447,0,0,1,.069,1.178" transform="translate(-3.882 -5.121)"/><path class="a" d="M53.115,35.646h-.728a1.429,1.429,0,0,1-1.142-.466,1.48,1.48,0,0,1-.354-1.01V28.6H52.18v5.5q0,.465.448.465h.487Z" transform="translate(-4.41 -5.121)"/><path class="a" d="M57.484,32.76a1.441,1.441,0,0,0-.118-.555.953.953,0,0,0-1.713,0,1.434,1.434,0,0,0-.118.555Zm1.26.881H55.535a1.158,1.158,0,0,0,.3.832,1.077,1.077,0,0,0,.822.317,1.579,1.579,0,0,0,1.162-.485l.777.762a2.789,2.789,0,0,1-.827.6,2.729,2.729,0,0,1-1.122.208q-2.372,0-2.372-2.644a2.871,2.871,0,0,1,.62-1.951,2.041,2.041,0,0,1,1.614-.683,2.078,2.078,0,0,1,1.654.7,2.6,2.6,0,0,1,.581,1.763Z" transform="translate(-4.703 -5.294)"/><path class="a" d="M16.993,20.854a3.233,3.233,0,0,1-1.117,2.074,3.175,3.175,0,0,1-2.1.7,3.194,3.194,0,0,1-2.357-.963,2.823,2.823,0,0,1-.761-1.519,13.206,13.206,0,0,1-.1-1.988,13.209,13.209,0,0,1,.1-1.988,2.823,2.823,0,0,1,.761-1.519,3.2,3.2,0,0,1,2.357-.963,3.08,3.08,0,0,1,3.216,2.778H15.263a1.423,1.423,0,0,0-1.473-1.247,1.379,1.379,0,0,0-1.191.58,5.031,5.031,0,0,0-.331,2.359q0,1.025.024,1.284a2.178,2.178,0,0,0,.405,1.2,1.387,1.387,0,0,0,1.093.457,1.423,1.423,0,0,0,1.473-1.247Z" transform="translate(-0.915 -3.916)"/><path class="a" d="M22.953,21.411v-.346H21.7q-.891,0-.891.728t.916.741a1.217,1.217,0,0,0,1.086-.407,1.341,1.341,0,0,0,.147-.716Zm1.608,2.371H23v-.556a2.121,2.121,0,0,1-1.571.618,2.163,2.163,0,0,1-1.621-.556,2,2,0,0,1-.54-1.457,1.76,1.76,0,0,1,.557-1.34,2.277,2.277,0,0,1,1.621-.525h1.505v-.321q0-1.013-1.187-1.013a1.524,1.524,0,0,0-1.223.531l-1.015-1a2.492,2.492,0,0,1,.994-.7,3.812,3.812,0,0,1,1.314-.185q2.725,0,2.725,2.272Z" transform="translate(-1.67 -4.139)"/><path class="a" d="M36.639,23.782H35.031v-3.89a1.173,1.173,0,0,0-.34-.914.994.994,0,0,0-.7-.259,1.023,1.023,0,0,0-.7.247,1.119,1.119,0,0,0-.352.889v3.927H31.324v-3.89a1.166,1.166,0,0,0-.344-.914,1.012,1.012,0,0,0-.712-.259,1.028,1.028,0,0,0-.724.259,1.165,1.165,0,0,0-.344.914v3.89H27.6V17.348h1.559v.593a2.117,2.117,0,0,1,1.6-.667,1.963,1.963,0,0,1,1.694.815,2.534,2.534,0,0,1,1.915-.815,2.117,2.117,0,0,1,1.571.568,2.481,2.481,0,0,1,.7,1.828Z" transform="translate(-2.392 -4.139)"/><path class="a" d="M40.037,23.562h1.608V17.128H40.037Zm0-7.52h1.608V14.732H40.037Z" transform="translate(-3.469 -3.919)"/><path class="a" d="M49.734,23.782H48.126v-3.89a1.169,1.169,0,0,0-.342-.914,1,1,0,0,0-.708-.259,1.018,1.018,0,0,0-.72.259,1.169,1.169,0,0,0-.342.914v3.89h-1.6V17.348h1.559v.593a2.093,2.093,0,0,1,1.6-.667,2.035,2.035,0,0,1,1.51.568,2.479,2.479,0,0,1,.651,1.828Z" transform="translate(-3.849 -4.139)"/><path class="a" d="M56.3,20.559A2.32,2.32,0,0,0,55.938,19a.992.992,0,0,0-.741-.284.976.976,0,0,0-.728.284,2.32,2.32,0,0,0-.364,1.556,2.346,2.346,0,0,0,.364,1.568.976.976,0,0,0,.728.284.992.992,0,0,0,.741-.284,2.346,2.346,0,0,0,.364-1.568m1.608,0a5.825,5.825,0,0,1-.147,1.469,2.317,2.317,0,0,1-.577,1.037,2.882,2.882,0,0,1-3.965,0,2.313,2.313,0,0,1-.577-1.037,5.825,5.825,0,0,1-.147-1.469,3.564,3.564,0,0,1,.737-2.507,2.884,2.884,0,0,1,3.941,0,3.564,3.564,0,0,1,.737,2.507" transform="translate(-4.549 -4.139)"/><path class="a" d="M46.8,11.961a2.906,2.906,0,0,1-3.063-2.993V2.893h.678V8.879a2.387,2.387,0,1,0,4.771,0V2.893h.678V8.968A2.906,2.906,0,0,1,46.8,11.961" transform="translate(-3.79 -2.893)"/><path class="a" d="M57.312,12.153V8.377c0-1.175-.59-1.819-1.67-1.819a1.612,1.612,0,0,0-1.707,1.819v3.776h-.64V6.066h.64v.72a2.448,2.448,0,0,1,3.39-.215,2.294,2.294,0,0,1,.628,1.692v3.89Z" transform="translate(-4.618 -3.162)"/><path class="a" d="M103.745,25.536c-5.732,3.076-22.964-3.6-30.083,1.139.019-.233-3.156-10.406,2.454-13.846,5.43-3.33,21.376,4.131,30.136-.283,0,0,3.161,9.948-2.507,12.99m2.732-13.516-2.426-.775c-4.351,3.956-16.437.254-24.42.365-3.657.051-6.463,1.822-7.117,7.008a21.907,21.907,0,0,0,.806,8.39l2.068.383c4.351-3.956,17.076-.357,25.053-.709,3.5-.155,6.379-1.646,6.917-6.847a18.878,18.878,0,0,0-.88-7.815" transform="translate(-6.273 -3.617)"/><path class="a" d="M80.318,12.087a8.028,8.028,0,0,0-4.138.858c-2.093,1.283-3.188,3.675-3.256,7.11a25.15,25.15,0,0,0,.8,6.233l.03.125c1.765-1.1,4.256-1.647,7.6-1.667a78.886,78.886,0,0,1,9.618.777c5.217.631,10.145,1.227,12.686-.136a5.791,5.791,0,0,0,2.712-3.231,11.462,11.462,0,0,0,.587-4.265,22.085,22.085,0,0,0-.814-5.142,16.752,16.752,0,0,1-7.268,1.373A68.264,68.264,0,0,1,88.5,13.011a56.555,56.555,0,0,0-8.186-.924M73.5,26.649a.1.1,0,0,0,0,.012s0-.008,0-.012m-.073.211,1.905.353c2.946-2.593,9.489-1.915,15.819-1.259a68.121,68.121,0,0,0,9.273.561c4.957-.219,6.256-3.278,6.669-5.907a9.356,9.356,0,0,1-.433,1.653,6.086,6.086,0,0,1-2.854,3.394c-2.625,1.409-7.6.807-12.865.17a78.875,78.875,0,0,0-9.58-.775c-3.408.02-5.9.588-7.626,1.737a.151.151,0,0,1-.161,0,.153.153,0,0,1-.074-.129c0-.034-.037-.165-.07-.3a25.442,25.442,0,0,1-.8-6.311c.07-3.546,1.215-6.024,3.4-7.365,2.542-1.559,7.17-.825,12.529.025,6.059.961,12.926,2.05,17.618-.314a.152.152,0,0,1,.212.09,22.3,22.3,0,0,1,.879,5.4q.018.618-.01,1.2a19.11,19.11,0,0,0-.905-6.952l-2.273-.726c-2.994,2.626-9.426,1.834-15.648,1.069a69.18,69.18,0,0,0-8.807-.724c-4.113.057-6.392,2.306-6.969,6.875a21.682,21.682,0,0,0,.773,8.238m1.951.669-.027,0-2.068-.383a.152.152,0,0,1-.055-.022c-.047-.031-.071-.046-.267-.8-.108-.417-.266-1.086-.405-1.9a20.468,20.468,0,0,1-.2-5.832,8.549,8.549,0,0,1,2.483-5.526,7.144,7.144,0,0,1,4.783-1.616,69.478,69.478,0,0,1,8.848.726c6.2.763,12.61,1.551,15.473-1.051a.151.151,0,0,1,.147-.032l2.426.775a.146.146,0,0,1,.035.016c.041.026.072.045.266.7.108.364.267.953.41,1.692a19.312,19.312,0,0,1,.274,5.566,7.79,7.79,0,0,1-2.4,5.417,7.434,7.434,0,0,1-4.66,1.567,68.232,68.232,0,0,1-9.317-.562c-6.3-.654-12.823-1.329-15.641,1.232a.151.151,0,0,1-.1.039" transform="translate(-6.258 -3.602)"/><path class="a" d="M79.541,22.234H78.153V18.167h1.2c.741,0,.841.311.841.614,0,.426-.246.642-.731.642h-.406l-.589,1.285h1.1c.6,0,.886.254.886.8,0,.311-.095.726-.914.726m1.634-2.35a1.532,1.532,0,0,0,.688-1.353c0-1.186-.748-1.788-2.222-1.788H76.434v6.914h3.3c1.126,0,2.441-.541,2.441-2.066a1.746,1.746,0,0,0-1-1.708" transform="translate(-6.623 -4.093)"/><path class="a" d="M83.159,23.658h1.718V16.743H83.159Z" transform="translate(-7.206 -4.093)"/><path class="a" d="M89.247,20.664,88.4,16.728H85.668v6.914h1.718V19.417L88.4,23.648h1.718l1.01-4.272v4.272h1.721v-6.92H90.118Z" transform="translate(-7.424 -4.092)"/><path class="a" d="M97.313,22.278H95.925V18.211h1.2c.741,0,.841.311.841.614,0,.426-.246.642-.731.642h-.406l-.589,1.285h1.1c.6,0,.886.254.886.8,0,.312-.095.726-.914.726m1.634-2.35a1.532,1.532,0,0,0,.688-1.353c0-1.186-.748-1.788-2.222-1.788H94.206V23.7h3.3c1.126,0,2.441-.541,2.441-2.066a1.747,1.747,0,0,0-1-1.708" transform="translate(-8.163 -4.097)"/><path class="a" d="M104.191,21.966a1.827,1.827,0,0,1,0-3.653,1.827,1.827,0,0,1,0,3.653m0-5.3a3.471,3.471,0,1,0,3.455,3.476,3.465,3.465,0,0,0-3.455-3.476" transform="translate(-8.73 -4.087)"/><path class="a" d="M78.657,15.605a1.876,1.876,0,0,1-.466.161,2.471,2.471,0,0,1-.5.05,1.469,1.469,0,0,1-.5-.081,1.137,1.137,0,0,1-.392-.231,1.046,1.046,0,0,1-.257-.364,1.283,1.283,0,0,1,0-.955,1.045,1.045,0,0,1,.257-.365,1.14,1.14,0,0,1,.392-.231,1.469,1.469,0,0,1,.5-.081,1.914,1.914,0,0,1,.507.063,1.006,1.006,0,0,1,.406.219l-.356.372a.712.712,0,0,0-.233-.155.865.865,0,0,0-.324-.053.779.779,0,0,0-.293.053.659.659,0,0,0-.225.147.644.644,0,0,0-.144.225.823.823,0,0,0,0,.566.647.647,0,0,0,.144.223.659.659,0,0,0,.225.147.776.776,0,0,0,.293.053,1,1,0,0,0,.285-.036,1.115,1.115,0,0,0,.191-.073V14.9H77.76v-.447h.9Z" transform="translate(-6.625 -3.813)"/><path class="a" d="M79.714,14.478h.3q.068,0,.144,0a.468.468,0,0,0,.138-.028.238.238,0,0,0,.1-.073.215.215,0,0,0,.04-.14A.226.226,0,0,0,80.4,14.1a.238.238,0,0,0-.091-.076.414.414,0,0,0-.126-.035,1.08,1.08,0,0,0-.139-.009h-.33Zm-.505-.909H80.1a1.64,1.64,0,0,1,.332.032.8.8,0,0,1,.275.109.552.552,0,0,1,.188.2.668.668,0,0,1,.07.321.625.625,0,0,1-.126.4.574.574,0,0,1-.369.206l.583.927h-.605l-.479-.878h-.249v.878h-.505Z" transform="translate(-6.864 -3.818)"/><path class="a" d="M83.3,14.919a1.022,1.022,0,0,1-.061.36.788.788,0,0,1-.183.285.842.842,0,0,1-.3.189,1.324,1.324,0,0,1-.839,0,.84.84,0,0,1-.3-.189.785.785,0,0,1-.183-.285,1.022,1.022,0,0,1-.062-.36V13.57h.505V14.9a.517.517,0,0,0,.034.189.451.451,0,0,0,.1.15.435.435,0,0,0,.147.1.479.479,0,0,0,.186.036.466.466,0,0,0,.184-.036.441.441,0,0,0,.146-.1.454.454,0,0,0,.1-.15.517.517,0,0,0,.034-.189V13.57H83.3Z" transform="translate(-7.051 -3.818)"/><path class="a" d="M84.355,14.5h.337a.681.681,0,0,0,.131-.012.361.361,0,0,0,.113-.042.231.231,0,0,0,.081-.081.247.247,0,0,0,.031-.129.211.211,0,0,0-.041-.135.267.267,0,0,0-.1-.079.46.46,0,0,0-.141-.036q-.078-.008-.149-.008h-.259Zm-.505-.931H84.7a1.756,1.756,0,0,1,.337.031.786.786,0,0,1,.277.107.55.55,0,0,1,.188.2.678.678,0,0,1,.07.324.72.72,0,0,1-.065.322.533.533,0,0,1-.178.208.737.737,0,0,1-.269.11,1.648,1.648,0,0,1-.337.032h-.369v.856H83.85Z" transform="translate(-7.266 -3.818)"/><path class="a" d="M86.467,14.662a.772.772,0,0,0,.05.284.645.645,0,0,0,.144.223.661.661,0,0,0,.225.147.84.84,0,0,0,.586,0,.66.66,0,0,0,.225-.147.648.648,0,0,0,.144-.223.822.822,0,0,0,0-.566.645.645,0,0,0-.144-.225.66.66,0,0,0-.225-.147.84.84,0,0,0-.586,0,.661.661,0,0,0-.225.147.643.643,0,0,0-.144.225.775.775,0,0,0-.05.282m-.524,0a1.194,1.194,0,0,1,.092-.478,1.051,1.051,0,0,1,.257-.365,1.148,1.148,0,0,1,.392-.231,1.56,1.56,0,0,1,.991,0,1.148,1.148,0,0,1,.392.231,1.048,1.048,0,0,1,.257.365,1.283,1.283,0,0,1,0,.956,1.046,1.046,0,0,1-.257.364,1.145,1.145,0,0,1-.392.231,1.564,1.564,0,0,1-.991,0,1.145,1.145,0,0,1-.392-.231,1.048,1.048,0,0,1-.257-.364,1.194,1.194,0,0,1-.092-.478" transform="translate(-7.447 -3.813)"/></g></svg>