<svg xmlns="http://www.w3.org/2000/svg" width="78.283" height="30.852" viewBox="0 0 78.283 30.852"><defs><style>.a{fill:#fff;}</style></defs><path class="a" d="M53.525,303.058c-14.307.054-28.5,14.325-25.093,23.022,2.815,7.2,18.673,5.569,26.232-4.28l-9.631,2.719,4.362.628c-2.52,1.6-7.943,3.848-12.24,2.339-4.7-1.649-4.773-7.161-.478-13.522s13.824-9.359,18.486-9.193,10.258,1.126,10.482,8.669C65.645,313.441,67.261,303.007,53.525,303.058Z" transform="translate(-26.451 -303.058)"/><path class="a" d="M20.158,355.055l9.631-2.719-4.361-.628c2.52-1.6,7.943-3.848,12.24-2.339,4.7,1.649,4.773,7.161.478,13.522s-13.824,9.359-18.486,9.193S9.4,370.958,9.178,363.415c0,0-1.617,10.434,12.119,10.383,14.307-.053,28.5-14.325,25.093-23.022C43.574,343.578,27.717,345.205,20.158,355.055Z" transform="translate(-9.119 -342.946)"/><path class="a" d="M176.145,468.61l.135-.9h-2.759l-.772,5.094h2.712l.136-.9h-1.651l.189-1.253h1.611l.143-.912h-1.617l.169-1.125Z" transform="translate(-159.951 -454.831)"/><path class="a" d="M228.85,467.755a.8.8,0,0,1,.383.1,5.147,5.147,0,0,1,.483.311l.566-.741a2.1,2.1,0,0,0-1.431-.609,1.8,1.8,0,0,0-1.251.446,1.449,1.449,0,0,0-.494,1.125,1.254,1.254,0,0,0,.165.669,1.41,1.41,0,0,0,.33.394,2.752,2.752,0,0,0,.557.287,2.053,2.053,0,0,1,.587.341.547.547,0,0,1,.2.415.584.584,0,0,1-.2.444.676.676,0,0,1-.477.185.945.945,0,0,1-.516-.169c-.174-.113-.327-.215-.461-.308l-.6.737a2.49,2.49,0,0,0,1.621.659,1.687,1.687,0,0,0,1.2-.464,1.482,1.482,0,0,0,.5-1.123,1.277,1.277,0,0,0-.126-.565,1.262,1.262,0,0,0-.27-.388,4.337,4.337,0,0,0-.531-.375,2.855,2.855,0,0,1-.684-.381.511.511,0,0,1-.2-.4.557.557,0,0,1,.185-.429A.679.679,0,0,1,228.85,467.755Z" transform="translate(-209.672 -454.011)"/><path class="a" d="M290.535,470.276a1.938,1.938,0,0,0,.275-1.034,1.358,1.358,0,0,0-.506-1.139,2.358,2.358,0,0,0-1.472-.393h-.966l-.756,5.094h1.055l.272-1.843h.159l.946,1.843h1.065l-.992-1.933A1.375,1.375,0,0,0,290.535,470.276Zm-1.073-.441a1.051,1.051,0,0,1-.677.221l-.214-.008.213-1.439a1.314,1.314,0,0,1,.723.163.585.585,0,0,1,.233.521A.668.668,0,0,1,289.462,469.835Z" transform="translate(-265.366 -454.831)"/><path class="a" d="M528.263,400.442h-1.376l.156-1.044h1.343l.119-.76h-1.347l.141-.937h1.42l.113-.75h-2.3l-.644,4.245h2.26Z" transform="translate(-485.469 -389.606)"/><path class="a" d="M559.293,401.195l.9-2.645.478,2.645h.408l1.293-2.536v2.536h.786V396.95h-.815l-1.2,2.386-.438-2.386H559.9l-1.438,4.245Z" transform="translate(-515.491 -389.606)"/><path class="a" d="M624.876,399.652a7.921,7.921,0,0,0,.925-.045,1.256,1.256,0,0,0,.5-.2,1.184,1.184,0,0,0,.4-.461,1.4,1.4,0,0,0,.158-.656q0-1.345-1.594-1.345h-.882l-.614,4.245h.878Zm.288-1.952h.185a.622.622,0,0,1,.432.158.506.506,0,0,1,.175.39.586.586,0,0,1-.212.458.764.764,0,0,1-.526.187h-.236Z" transform="translate(-575.693 -389.606)"/><path class="a" d="M667.366,399.669h.132l.788,1.535h.887l-.826-1.611a1.148,1.148,0,0,0,.768-.5,1.614,1.614,0,0,0,.229-.861,1.131,1.131,0,0,0-.422-.949,1.967,1.967,0,0,0-1.227-.328h-.8l-.63,4.245h.879Zm.289-1.959a1.1,1.1,0,0,1,.6.136.488.488,0,0,1,.195.434.558.558,0,0,1-.232.451.878.878,0,0,1-.565.185l-.178-.006Z" transform="translate(-614.86 -389.615)"/><path class="a" d="M711.56,397.7h1.42l.113-.75h-2.3l-.644,4.245h2.26l.113-.753h-1.376l.157-1.044h1.342l.119-.76h-1.347Z" transform="translate(-655.317 -389.606)"/><path class="a" d="M746.439,400.169a1.236,1.236,0,0,0,.412-.936,1.135,1.135,0,0,0-.329-.794,3.677,3.677,0,0,0-.443-.312,2.4,2.4,0,0,1-.57-.317.427.427,0,0,1-.167-.333.463.463,0,0,1,.153-.357.564.564,0,0,1,.4-.141.655.655,0,0,1,.318.088,4.233,4.233,0,0,1,.4.259l.472-.617a1.751,1.751,0,0,0-1.193-.508,1.5,1.5,0,0,0-1.043.372,1.209,1.209,0,0,0-.412.938,1.053,1.053,0,0,0,.138.558,1.163,1.163,0,0,0,.275.328,2.308,2.308,0,0,0,.464.239,1.707,1.707,0,0,1,.49.285.455.455,0,0,1,.164.346.486.486,0,0,1-.165.37.563.563,0,0,1-.4.153.787.787,0,0,1-.43-.141c-.145-.094-.273-.179-.385-.257l-.5.614a2.076,2.076,0,0,0,1.352.55A1.4,1.4,0,0,0,746.439,400.169Z" transform="translate(-686.602 -388.915)"/><path class="a" d="M781.113,401.195l.458-.853h1.572l.214.853h.822L783.1,396.95h-.609l-2.28,4.245Zm1.53-2.849.315,1.252h-.986Z" transform="translate(-719.896 -389.606)"/><path class="a" d="M528.754,551.448a1.614,1.614,0,0,0,.229-.861,1.131,1.131,0,0,0-.422-.949,1.964,1.964,0,0,0-1.226-.328h-.8l-.63,4.245h.879l.227-1.535h.132l.788,1.535h.887l-.827-1.61A1.147,1.147,0,0,0,528.754,551.448Zm-.894-.367a.879.879,0,0,1-.565.185l-.177-.006.177-1.2a1.1,1.1,0,0,1,.6.136.487.487,0,0,1,.194.434A.557.557,0,0,1,527.86,551.082Z" transform="translate(-485.478 -530.049)"/><path class="a" d="M571.2,550.07h1.42l.113-.75h-2.3l-.643,4.245h2.26l.113-.753h-1.376l.157-1.044h1.342l.119-.76h-1.347Z" transform="translate(-525.935 -530.058)"/><path class="a" d="M606.151,550.809a3.58,3.58,0,0,0-.443-.312,2.406,2.406,0,0,1-.57-.317.426.426,0,0,1-.167-.332.466.466,0,0,1,.153-.357.564.564,0,0,1,.4-.141.662.662,0,0,1,.318.087,4.494,4.494,0,0,1,.4.258l.472-.617a1.751,1.751,0,0,0-1.193-.508,1.5,1.5,0,0,0-1.043.372,1.209,1.209,0,0,0-.412.938,1.046,1.046,0,0,0,.138.558,1.174,1.174,0,0,0,.275.328,2.312,2.312,0,0,0,.464.239,1.708,1.708,0,0,1,.49.285.455.455,0,0,1,.164.346.486.486,0,0,1-.165.37.562.562,0,0,1-.4.153.786.786,0,0,1-.43-.141c-.145-.094-.273-.179-.385-.257l-.5.614a2.077,2.077,0,0,0,1.352.55,1.406,1.406,0,0,0,1-.386,1.236,1.236,0,0,0,.412-.936,1.122,1.122,0,0,0-.33-.792Z" transform="translate(-557.211 -529.366)"/><path class="a" d="M642.626,549.32h-.882l-.614,4.245h.878l.228-1.542a7.764,7.764,0,0,0,.924-.045,1.256,1.256,0,0,0,.5-.2,1.19,1.19,0,0,0,.4-.461,1.4,1.4,0,0,0,.158-.656Q644.22,549.32,642.626,549.32Zm.477,1.756a.765.765,0,0,1-.526.187h-.236l.182-1.193h.185a.622.622,0,0,1,.432.158.506.506,0,0,1,.175.39A.591.591,0,0,1,643.1,551.076Z" transform="translate(-591.695 -530.058)"/><path class="a" d="M687.507,548.49a2.318,2.318,0,0,0-1.7.648,2.187,2.187,0,0,0-.659,1.628,2.113,2.113,0,0,0,.538,1.528,1.954,1.954,0,0,0,1.473.564,2.356,2.356,0,0,0,1.711-.627,2.183,2.183,0,0,0,.656-1.649,2.142,2.142,0,0,0-.526-1.539A1.967,1.967,0,0,0,687.507,548.49Zm.729,3.166a1.314,1.314,0,0,1-.994.443,1.12,1.12,0,0,1-.871-.379,1.388,1.388,0,0,1-.341-.967,1.5,1.5,0,0,1,.415-1.059,1.3,1.3,0,0,1,.981-.444,1.143,1.143,0,0,1,.888.372,1.392,1.392,0,0,1,.338.973A1.5,1.5,0,0,1,688.236,551.656Z" transform="translate(-632.272 -529.293)"/><path class="a" d="M748.628,549.32l-.418,2.842-1.358-2.842h-.9l-.623,4.245h.875l.43-2.947,1.423,2.947h.815l.623-4.245Z" transform="translate(-687.745 -530.058)"/><path class="a" d="M799.221,550.809a3.569,3.569,0,0,0-.443-.312,2.388,2.388,0,0,1-.57-.317.426.426,0,0,1-.167-.332.466.466,0,0,1,.153-.357.564.564,0,0,1,.4-.141.662.662,0,0,1,.318.087,4.485,4.485,0,0,1,.4.258l.472-.617a1.751,1.751,0,0,0-1.193-.508,1.5,1.5,0,0,0-1.043.372,1.209,1.209,0,0,0-.412.938,1.046,1.046,0,0,0,.138.558,1.175,1.175,0,0,0,.275.328,2.311,2.311,0,0,0,.464.239,1.711,1.711,0,0,1,.49.285.456.456,0,0,1,.163.346.486.486,0,0,1-.165.37.561.561,0,0,1-.4.153.786.786,0,0,1-.43-.141c-.145-.094-.273-.179-.385-.257l-.5.614a2.077,2.077,0,0,0,1.352.55,1.406,1.406,0,0,0,1-.386,1.236,1.236,0,0,0,.412-.936,1.122,1.122,0,0,0-.33-.792Z" transform="translate(-735.18 -529.366)"/><path class="a" d="M835.19,549.32l-2.28,4.245h.9l.458-.853h1.572l.214.853h.822L835.8,549.32Zm-.519,2.648.672-1.251.314,1.251Z" transform="translate(-768.474 -530.058)"/><path class="a" d="M891.345,551.392a1.144,1.144,0,0,0,.6-.986q0-1.086-1.458-1.086h-1.005l-.644,4.245h1.338a2.407,2.407,0,0,0,1.343-.318,1.052,1.052,0,0,0-.176-1.855Zm-.448,1.314a1.139,1.139,0,0,1-.632.156h-.436L890,551.7h.362a.879.879,0,0,1,.551.173.517.517,0,0,1,.224.422A.469.469,0,0,1,890.9,552.706Zm.05-1.812a.884.884,0,0,1-.517.142H890.1l.152-1.015h.249a.738.738,0,0,1,.476.141.46.46,0,0,1,.174.376A.422.422,0,0,1,890.947,550.895Z" transform="translate(-820.03 -530.058)"/><path class="a" d="M935.426,549.32h-.873l-.623,4.245h2.286l.106-.753h-1.4Z" transform="translate(-861.593 -530.058)"/><path class="a" d="M969.89,553.565h2.26l.113-.753h-1.376l.157-1.044h1.342l.12-.76h-1.348l.141-.937h1.42l.113-.75h-2.3Z" transform="translate(-894.74 -530.058)"/><path class="a" d="M528.23,474.966a1.233,1.233,0,0,0,.412-.936,1.05,1.05,0,0,0-.106-.47,1.065,1.065,0,0,0-.224-.323,3.679,3.679,0,0,0-.443-.312,2.4,2.4,0,0,1-.57-.317.426.426,0,0,1-.167-.333.46.46,0,0,1,.153-.357.563.563,0,0,1,.4-.141.654.654,0,0,1,.318.088,4.233,4.233,0,0,1,.4.259l.472-.617a1.751,1.751,0,0,0-1.193-.508,1.5,1.5,0,0,0-1.043.372,1.209,1.209,0,0,0-.412.938,1.052,1.052,0,0,0,.138.558,1.16,1.16,0,0,0,.274.328,2.308,2.308,0,0,0,.464.239,1.711,1.711,0,0,1,.49.285.456.456,0,0,1,.163.346.486.486,0,0,1-.165.37.562.562,0,0,1-.4.153.787.787,0,0,1-.43-.141c-.144-.094-.272-.179-.385-.257l-.5.614a2.076,2.076,0,0,0,1.352.55A1.41,1.41,0,0,0,528.23,474.966Z" transform="translate(-485.46 -457.864)"/><path class="a" d="M568.781,475.268a2.354,2.354,0,0,0,1.711-.627,2.183,2.183,0,0,0,.656-1.649,2.143,2.143,0,0,0-.526-1.539,1.966,1.966,0,0,0-1.5-.553,2.317,2.317,0,0,0-1.7.648,2.188,2.188,0,0,0-.659,1.628,2.117,2.117,0,0,0,.538,1.528A1.96,1.96,0,0,0,568.781,475.268Zm-.717-3.164a1.3,1.3,0,0,1,.981-.444,1.143,1.143,0,0,1,.888.372,1.392,1.392,0,0,1,.338.973,1.5,1.5,0,0,1-.415,1.061,1.318,1.318,0,0,1-.994.443,1.12,1.12,0,0,1-.871-.379,1.388,1.388,0,0,1-.341-.967A1.5,1.5,0,0,1,568.065,472.1Z" transform="translate(-523.151 -457.772)"/><path class="a" d="M631.509,471.679a1.493,1.493,0,0,1,.986.353l.113-.776a2.367,2.367,0,0,0-2.875.289,2.218,2.218,0,0,0-.714,1.731,2.044,2.044,0,0,0,.533,1.413,1.883,1.883,0,0,0,1.478.594,2.3,2.3,0,0,0,1.067-.271l.126-.863a2.267,2.267,0,0,1-1.073.314,1.193,1.193,0,0,1-.885-.344,1.214,1.214,0,0,1-.341-.894,1.468,1.468,0,0,1,.475-1.08A1.536,1.536,0,0,1,631.509,471.679Z" transform="translate(-580.532 -457.772)"/><path class="a" d="M675.943,471.72h-.873l-.63,4.245h.876Z" transform="translate(-622.4 -458.528)"/><path class="a" d="M693.92,471.72l-2.28,4.245h.9l.458-.853h1.572l.214.853h.822l-1.082-4.245Zm-.519,2.648.672-1.251.314,1.251Z" transform="translate(-638.254 -458.528)"/><path class="a" d="M748.344,471.72l-.624,4.245h2.286l.106-.753h-1.4l.507-3.492Z" transform="translate(-689.948 -458.528)"/><path class="a" d="M784.824,475.965V471.72h-.814l-1.2,2.386-.437-2.386h-.807l-1.438,4.245h.833l.9-2.644.478,2.644h.408l1.293-2.536v2.536Z" transform="translate(-719.823 -458.528)"/><path class="a" d="M848.713,475.212h-1.376l.157-1.044h1.342l.119-.759h-1.347l.141-.938h1.42l.113-.75h-2.3l-.644,4.245H848.6Z" transform="translate(-780.854 -458.528)"/><path class="a" d="M883.426,475.965l.429-2.947,1.423,2.947h.816l.623-4.245h-.869l-.417,2.842-1.359-2.842h-.9l-.624,4.245Z" transform="translate(-814.232 -458.528)"/><path class="a" d="M940.4,475.965h.866l.511-3.495h.867l.113-.75h-2.6l-.1.75h.853Z" transform="translate(-867.234 -458.528)"/><path class="a" d="M972.973,471.72l-.643,4.245h2.26l.113-.753h-1.376l.157-1.044h1.342l.119-.759H973.6l.141-.938h1.42l.113-.75Z" transform="translate(-896.989 -458.528)"/></svg>