<svg xmlns="http://www.w3.org/2000/svg" width="63.338" height="34.173" viewBox="0 0 63.338 34.173"><defs><style>.a{fill:#fff;}</style></defs><path class="a" d="M.464,729.28H.916l1,2.711H1.368l-.251-.653h-.9l-.251.653H-.59Zm.6,1.657-.351-1.054-.4,1.054Z" transform="translate(0.59 -697.918)"/><path class="a" d="M43.82,731.991V729.28h.5v2.259h1.355v.452H43.82Z" transform="translate(-41.009 -697.918)"/><path class="a" d="M78.71,731.991V729.28h.5v2.711Z" transform="translate(-73.69 -697.918)"/><path class="a" d="M98.369,731.991v-1.807l-.7,1.355h-.3l-.7-1.355v1.807h-.5V729.28h.552l.8,1.556.8-1.556h.552v2.711Z" transform="translate(-90.036 -697.918)"/><path class="a" d="M150.347,731.539v.452H148.49V729.28h1.857v.452h-1.305v.653H150.2v.4h-1.155v.7Z" transform="translate(-139.053 -697.918)"/><path class="a" d="M184.682,729.484v1.707h-.5V728.48h.4l1.405,1.757V728.48h.5v2.711h-.4Z" transform="translate(-172.484 -697.169)"/><path class="a" d="M229.209,729.722h-.853v2.259h-.5v-2.259H227v-.452h2.259Z" transform="translate(-212.593 -697.909)"/><path class="a" d="M259.784,729.28h.452l1,2.711h-.552l-.251-.653h-.9l-.251.653h-.552Zm.6,1.657-.351-1.054-.4,1.054Z" transform="translate(-242.315 -697.918)"/><path class="a" d="M305.339,731.991v-1.807l-.7,1.355h-.3l-.7-1.355v1.807h-.5V729.28h.552l.8,1.556.8-1.556h.552v2.711Z" transform="translate(-283.904 -697.918)"/><path class="a" d="M354.4,731.972a1.8,1.8,0,0,1-.552-.1,2.734,2.734,0,0,1-.4-.3,1.318,1.318,0,0,1-.251-.452,1.787,1.787,0,0,1-.1-.5,1.5,1.5,0,0,1,.1-.5,1.18,1.18,0,0,1,.3-.452.784.784,0,0,1,.4-.3,1.8,1.8,0,0,1,.552-.1,2.124,2.124,0,0,1,.552.1,2.73,2.73,0,0,1,.4.3,2.049,2.049,0,0,1,.251.452,1.786,1.786,0,0,1,.1.5,1.5,1.5,0,0,1-.1.5,2.023,2.023,0,0,1-.251.452,1.218,1.218,0,0,1-.4.3A1.492,1.492,0,0,1,354.4,731.972Zm-.8-1.355a.85.85,0,0,0,.05.351l.151.3a.5.5,0,0,0,.251.2.663.663,0,0,0,.7,0,.5.5,0,0,0,.251-.2l.151-.3a.74.74,0,0,0,.05-.351.849.849,0,0,0-.05-.351l-.151-.3a.5.5,0,0,0-.251-.2.74.74,0,0,0-.351-.05.723.723,0,0,0-.351.1.5.5,0,0,0-.251.2l-.151.3A.643.643,0,0,0,353.592,730.616Z" transform="translate(-330.702 -697.899)"/><path class="a" d="M398.558,729.927a.174.174,0,0,0-.1-.05c-.05-.05-.1-.05-.151-.1a.3.3,0,0,0-.2-.05c-.1,0-.151-.05-.251-.05a.429.429,0,0,0-.3.1.383.383,0,0,0-.1.2.189.189,0,0,0,.05.151l.1.1c.05.05.1.05.2.1a.455.455,0,0,0,.251.05,3.086,3.086,0,0,1,.351.1,1.088,1.088,0,0,1,.251.151c.05.05.151.151.151.2a.63.63,0,0,1,.05.3.722.722,0,0,1-.1.351,1.119,1.119,0,0,1-.2.251l-.3.151a1,1,0,0,1-.4.05,2.5,2.5,0,0,1-.6-.1,2.68,2.68,0,0,1-.552-.251l.251-.452.1.1c.05.05.151.05.2.1s.151.05.251.1a.63.63,0,0,0,.3.05q.452,0,.452-.3a.189.189,0,0,0-.05-.151c-.05-.05-.1-.1-.151-.1a.377.377,0,0,1-.2-.1.709.709,0,0,1-.3-.1,3.088,3.088,0,0,1-.351-.1c-.1-.05-.151-.1-.251-.151a.688.688,0,0,1-.151-.2.375.375,0,0,1-.05-.251.722.722,0,0,1,.1-.351.5.5,0,0,1,.2-.251l.3-.151a1,1,0,0,1,.4-.05,1.5,1.5,0,0,1,.5.1,3.03,3.03,0,0,1,.4.2Z" transform="translate(-371.551 -697.862)"/><path class="a" d="M452.565,730.78c.1,0,.251,0,.3-.1a.39.39,0,0,0,.2-.2.538.538,0,0,0,.1-.3c0-.1.05-.2.05-.3v-1.355h.5v1.355a1.56,1.56,0,0,1-.05.5,1,1,0,0,1-.2.4,2.216,2.216,0,0,1-.351.3,1.566,1.566,0,0,1-1.1,0,.675.675,0,0,1-.351-.3.941.941,0,0,1-.2-.452,1.862,1.862,0,0,1-.05-.5V728.47h.5v1.355a1,1,0,0,0,.05.351.709.709,0,0,0,.1.3.39.39,0,0,0,.2.2A.363.363,0,0,0,452.565,730.78Z" transform="translate(-422.798 -697.159)"/><path class="a" d="M497.922,729.484v1.707h-.5V728.48h.4l1.405,1.757V728.48h.5v2.711h-.4Z" transform="translate(-465.895 -697.169)"/><path class="a" d="M559.109,731.991v-1.807l-.7,1.355h-.3l-.7-1.355v1.807h-.5V729.28h.552l.8,1.556.8-1.556h.552v2.711Z" transform="translate(-521.61 -697.918)"/><path class="a" d="M609.594,730.78c.1,0,.251,0,.3-.1a.39.39,0,0,0,.2-.2.537.537,0,0,0,.1-.3c0-.1.05-.2.05-.3v-1.355h.5v1.355a1.558,1.558,0,0,1-.05.5,1,1,0,0,1-.2.4,2.216,2.216,0,0,1-.351.3,1,1,0,0,1-.552.1,1.784,1.784,0,0,1-.552-.1.675.675,0,0,1-.351-.3.943.943,0,0,1-.2-.452,1.863,1.863,0,0,1-.05-.5V728.47h.5v1.355a1,1,0,0,0,.05.351.709.709,0,0,0,.1.3.391.391,0,0,0,.2.2A.361.361,0,0,0,609.594,730.78Z" transform="translate(-569.888 -697.159)"/><path class="a" d="M654.942,729.484v1.707h-.5V728.48h.4l1.405,1.757V728.48h.5v2.711h-.4Z" transform="translate(-612.976 -697.169)"/><path class="a" d="M699.64,731.991V729.28h1a2.5,2.5,0,0,1,.6.1.782.782,0,0,1,.4.3.975.975,0,0,1,.251.452,1.427,1.427,0,0,1,0,1.054,1.054,1.054,0,0,1-.653.653,1.809,1.809,0,0,1-.552.1Zm1.807-1.355a.738.738,0,0,0-.05-.351l-.151-.3a.5.5,0,0,0-.251-.2.739.739,0,0,0-.351-.05h-.452v1.757h.452a.739.739,0,0,0,.351-.05.5.5,0,0,0,.251-.2,1.674,1.674,0,0,0,.151-.3C701.4,730.886,701.447,730.735,701.447,730.635Z" transform="translate(-655.315 -697.918)"/><path class="a" d="M741.385,731.972a1.8,1.8,0,0,1-.552-.1,2.732,2.732,0,0,1-.4-.3,1.316,1.316,0,0,1-.251-.452,1.785,1.785,0,0,1-.1-.5,1.5,1.5,0,0,1,.1-.5,1.179,1.179,0,0,1,.3-.452.784.784,0,0,1,.4-.3,1.805,1.805,0,0,1,.552-.1,2.124,2.124,0,0,1,.552.1,2.728,2.728,0,0,1,.4.3,2.049,2.049,0,0,1,.251.452,1.786,1.786,0,0,1,.1.5,1.5,1.5,0,0,1-.1.5,2.02,2.02,0,0,1-.251.452,1.218,1.218,0,0,1-.4.3A1.275,1.275,0,0,1,741.385,731.972Zm-.753-1.355a.85.85,0,0,0,.05.351l.151.3a.5.5,0,0,0,.251.2.666.666,0,0,0,.7,0,.5.5,0,0,0,.251-.2l.151-.3a.74.74,0,0,0,.05-.351.85.85,0,0,0-.05-.351l-.151-.3a.5.5,0,0,0-.251-.2.74.74,0,0,0-.351-.05.723.723,0,0,0-.351.1.5.5,0,0,0-.251.2l-.151.3A.627.627,0,0,0,740.633,730.616Z" transform="translate(-693.195 -697.899)"/><path class="a" d="M804.939,731.991v-1.807l-.7,1.355h-.3l-.7-1.355v1.807h-.5V729.28h.552l.8,1.556.8-1.556h.552v2.711Z" transform="translate(-751.879 -697.918)"/><path class="a" d="M856.927,731.539v.452H855.07V729.28h1.857v.452h-1.305v.653h1.155v.4h-1.155v.7Z" transform="translate(-800.906 -697.918)"/><path class="a" d="M885.411,732.179c.05,0,.1.05.2.1a.631.631,0,0,0,.3.05.377.377,0,0,0,.251-.05l.151-.151a.544.544,0,0,0,.05-.3V730.07h.5v1.355a1.883,1.883,0,0,1-.05.552.812.812,0,0,1-.151.452.858.858,0,0,1-.3.3,1.567,1.567,0,0,1-.552.1,1.193,1.193,0,0,1-.6-.151Z" transform="translate(-829.138 -698.658)"/><path class="a" d="M919.025,731.972a1.8,1.8,0,0,1-.552-.1,2.732,2.732,0,0,1-.4-.3,1.316,1.316,0,0,1-.251-.452,1.785,1.785,0,0,1-.1-.5,1.5,1.5,0,0,1,.1-.5,1.179,1.179,0,0,1,.3-.452.784.784,0,0,1,.4-.3,1.8,1.8,0,0,1,.552-.1,2.124,2.124,0,0,1,.552.1,2.724,2.724,0,0,1,.4.3,2.047,2.047,0,0,1,.251.452,1.786,1.786,0,0,1,.1.5,1.5,1.5,0,0,1-.1.5,2.018,2.018,0,0,1-.251.452,1.217,1.217,0,0,1-.4.3A1.37,1.37,0,0,1,919.025,731.972Zm-.8-1.355a.851.851,0,0,0,.05.351l.151.3a.5.5,0,0,0,.251.2.666.666,0,0,0,.7,0,.5.5,0,0,0,.251-.2l.151-.3a.74.74,0,0,0,.05-.351.849.849,0,0,0-.05-.351l-.151-.3a.5.5,0,0,0-.251-.2.74.74,0,0,0-.351-.05.723.723,0,0,0-.351.1.5.5,0,0,0-.251.2l-.151.3C918.272,730.416,918.222,730.516,918.222,730.616Z" transform="translate(-859.59 -697.899)"/><path class="a" d="M965.3,731.991V729.28h1.2a.924.924,0,0,1,.351.1.5.5,0,0,1,.251.2,1.04,1.04,0,0,1,.2.3.63.63,0,0,1,.05.3.966.966,0,0,1-.151.5.675.675,0,0,1-.351.3l.6,1h-.6l-.552-.9h-.5v.9h-.5Zm.552-1.355h.653a.189.189,0,0,0,.151-.05c.05-.05.1-.05.1-.1a.184.184,0,0,0,.05-.151c0-.05.05-.1.05-.151a.188.188,0,0,0-.05-.151c0-.05-.05-.1-.1-.151l-.1-.1c-.05,0-.1-.05-.151-.05H965.8Z" transform="translate(-904.158 -697.918)"/><path class="a" d="M61.51,235.345h0L57.1,233.89h-.151l-.151-.05c-3.611,3.26-10.182,3.561-17.605,3.009-3.26-.251-6.671-.652-10.081-1.1-2.407-.251-4.865-.552-7.273-.753a1.266,1.266,0,0,1-.4-.05c-.251,0-.552-.05-.8-.05-2.709-.251-5.267-.4-7.624-.4-6.62.15-11.586,3.36-12.789,12.539v.2c-.9,7.323,1.3,15.047,1.555,15.2.05,0,.05.05.1.05l3.661.7h.05a.189.189,0,0,0,.151-.05c5.016-4.564,16.753-3.361,28.038-2.207a117.487,117.487,0,0,0,16.7,1.053c.8-.05,1.555-.1,2.307-.2,6.269-.953,9.58-4.915,10.333-12.238a32.047,32.047,0,0,0-1.6-14.194m-54.822,1.4c9.731-5.969,38.37,7.373,54.019-.5,0,0,5.668,17.705-4.514,23.123-10.283,5.517-41.179-6.421-53.969,2.056.1-.4-5.567-18.558,4.464-24.677M42.15,261.225c.2,0,.5.05.7.05-.2,0-.5-.05-.7-.05" transform="translate(0.035 -233.84)"/><path class="a" d="M115.753,386.772a2.781,2.781,0,0,0,1.255-2.409c0-2.109-1.355-3.213-4.016-3.213H107.27V393.5h5.924c2.008,0,4.367-.954,4.367-3.665a3.052,3.052,0,0,0-1.808-3.062m-2.912,4.167h-2.51v-7.279h2.159c1.355,0,1.506.552,1.506,1.1,0,.753-.452,1.155-1.305,1.155h-.753l-1.054,2.259h2.008c1.1,0,1.556.452,1.556,1.405.1.6-.15,1.355-1.606,1.355" transform="translate(-100.442 -371.825)"/><rect class="a" width="3.113" height="12.349" transform="translate(17.871 9.324)"/><path class="a" d="M353.175,387.328l-1.556-6.978H346.75v12.3h3.062v-7.53l1.807,7.53h3.113l1.807-7.63v7.63H359.6v-12.3h-4.869Z" transform="translate(-324.763 -371.076)"/><path class="a" d="M576.484,387.562a2.781,2.781,0,0,0,1.255-2.409c0-2.109-1.355-3.213-4.016-3.213H568v12.349h5.924c2.008,0,4.367-.954,4.367-3.665a3.169,3.169,0,0,0-1.807-3.062m-2.912,4.167h-2.51V384.55h2.159c1.355,0,1.506.552,1.506,1.1,0,.753-.452,1.155-1.305,1.155h-.7l-1.155,2.259h2.008c1.1,0,1.556.452,1.556,1.405.1.552-.1,1.255-1.556,1.255" transform="translate(-532.008 -372.565)"/><path class="a" d="M743.084,378.76a6.169,6.169,0,1,0,.01,0h-.01m0,9.438a3.263,3.263,0,1,1,3.263-3.263,3.263,3.263,0,0,1-3.263,3.263" transform="translate(-690.226 -369.586)"/><path class="a" d="M112.832,300.814a2.468,2.468,0,0,1-.853.3,5.554,5.554,0,0,1-.9.1,2.843,2.843,0,0,1-.9-.151,3.234,3.234,0,0,1-.7-.4,1.914,1.914,0,0,1-.452-.653,2.509,2.509,0,0,1,0-1.707,1.9,1.9,0,0,1,.452-.653,1.965,1.965,0,0,1,.7-.4,3.431,3.431,0,0,1,.954-.151,4.512,4.512,0,0,1,.9.1,1.965,1.965,0,0,1,.7.4l-.6.653a1.1,1.1,0,0,0-.4-.251,1.876,1.876,0,0,0-.6-.1,1.5,1.5,0,0,0-.5.1,1.054,1.054,0,0,0-.653.653,1.515,1.515,0,0,0-.1.5,1.5,1.5,0,0,0,.1.5,1.054,1.054,0,0,0,.653.653,1.786,1.786,0,0,0,.5.1,1.559,1.559,0,0,0,.5-.05,2.42,2.42,0,0,0,.351-.151v-.653h-.753v-.8h1.607Z" transform="translate(-101.939 -293.096)"/><path class="a" d="M180.21,298.64h1.607a2.469,2.469,0,0,1,.6.05,1.5,1.5,0,0,1,.5.2,1.17,1.17,0,0,1,.351.351,1,1,0,0,1,.1.552,1.156,1.156,0,0,1-.2.7.934.934,0,0,1-.653.351l1.054,1.657h-1.1l-.853-1.556h-.452V302.5h-.9V298.64h-.051Zm.9,1.607h.8a.455.455,0,0,0,.251-.05c.05-.05.151-.05.2-.151a.656.656,0,0,0,0-.5l-.151-.151a.3.3,0,0,0-.2-.05h-.853v.9Z" transform="translate(-168.765 -294.536)"/><path class="a" d="M239.914,301.079a2.531,2.531,0,0,1-.1.653,1.676,1.676,0,0,1-.3.5,1.506,1.506,0,0,1-.552.351,3.866,3.866,0,0,1-.753.1,3.029,3.029,0,0,1-.753-.1,2.076,2.076,0,0,1-.552-.351,1.045,1.045,0,0,1-.3-.5,2.559,2.559,0,0,1-.1-.653V298.67h.9v2.359a.85.85,0,0,0,.05.351,1.09,1.09,0,0,0,.151.251.424.424,0,0,0,.251.151.74.74,0,0,0,.351.05.85.85,0,0,0,.351-.05,1.092,1.092,0,0,0,.251-.151c.05-.1.151-.151.151-.251a.74.74,0,0,0,.05-.351V298.67h.9Z" transform="translate(-221.492 -294.566)"/><path class="a" d="M299.96,298.64h1.506a2.469,2.469,0,0,1,.6.05,1.5,1.5,0,0,1,.5.2,1.17,1.17,0,0,1,.351.351,1,1,0,0,1,.1.552,1.535,1.535,0,0,1-.1.552,1.087,1.087,0,0,1-.3.351,1.5,1.5,0,0,1-.5.2,2.44,2.44,0,0,1-.6.05h-.653v1.506h-.9Zm.9,1.657h.853c.05,0,.151-.05.2-.05l.151-.151a.657.657,0,0,0,0-.5.688.688,0,0,0-.2-.151.449.449,0,0,0-.251-.05h-.7v.9h-.05Z" transform="translate(-280.935 -294.536)"/><path class="a" d="M353.878,299.137a2.353,2.353,0,0,1,.151-.853,1.9,1.9,0,0,1,.452-.653,1.964,1.964,0,0,1,.7-.4,2.43,2.43,0,0,1,.9-.151,2.844,2.844,0,0,1,.9.151,3.231,3.231,0,0,1,.7.4,1.913,1.913,0,0,1,.452.653,2.509,2.509,0,0,1,0,1.707,1.9,1.9,0,0,1-.452.653,1.965,1.965,0,0,1-.7.4,2.43,2.43,0,0,1-.9.151,2.844,2.844,0,0,1-.9-.151,3.233,3.233,0,0,1-.7-.4,1.913,1.913,0,0,1-.452-.653,2.353,2.353,0,0,1-.151-.853m.954,0a1.5,1.5,0,0,0,.1.5,1.054,1.054,0,0,0,.653.653,1.788,1.788,0,0,0,.5.1,1.5,1.5,0,0,0,.5-.1,1.054,1.054,0,0,0,.653-.653,1.515,1.515,0,0,0,.1-.5,1.5,1.5,0,0,0-.1-.5,1.054,1.054,0,0,0-.653-.653,1.787,1.787,0,0,0-.5-.1,1.5,1.5,0,0,0-.5.1,1.054,1.054,0,0,0-.653.653.82.82,0,0,0-.1.5" transform="translate(-331.44 -293.075)"/><path class="a" d="M954.99,652.075a1.5,1.5,0,0,1,.1-.5.782.782,0,0,1,.3-.4,2.816,2.816,0,0,1,.4-.3,1.788,1.788,0,0,1,.5-.1,1.5,1.5,0,0,1,.5.1,1.091,1.091,0,0,1,.4.251,2.807,2.807,0,0,1,.3.4,1.786,1.786,0,0,1,.1.5,1.5,1.5,0,0,1-.1.5.782.782,0,0,1-.3.4,2.81,2.81,0,0,1-.4.3,1.786,1.786,0,0,1-.5.1,1.5,1.5,0,0,1-.5-.1,1.09,1.09,0,0,1-.4-.251,2.818,2.818,0,0,1-.3-.4,1.5,1.5,0,0,1-.1-.5m.251,0a1.46,1.46,0,0,0,.1.452,1.317,1.317,0,0,0,.6.6,1.068,1.068,0,0,0,.9,0,1.317,1.317,0,0,0,.6-.6,1.068,1.068,0,0,0,0-.9,1.317,1.317,0,0,0-.6-.6,1.064,1.064,0,0,0-.9,0,1.317,1.317,0,0,0-.6.6.749.749,0,0,0-.1.451m.6-.753h.552a.775.775,0,0,1,.4.1.393.393,0,0,1,.151.351.428.428,0,0,1-.1.3.537.537,0,0,1-.3.1l.452.653h-.251l-.4-.653h-.251v.653h-.2v-1.506h-.049Zm.2.7h.4a.189.189,0,0,0,.151-.05c.05,0,.05-.05.1-.05s.05-.1.05-.151a.189.189,0,0,0-.05-.151c0-.05-.05-.05-.1-.05s-.05-.05-.1-.05h-.452S956.044,652.025,956.044,652.025Z" transform="translate(-894.501 -624.378)"/></svg>