<svg xmlns="http://www.w3.org/2000/svg" width="41.998" height="41.998" viewBox="0 0 41.998 41.998"><defs><style>.a{fill:#fff;fill-rule:evenodd;}</style></defs><g transform="translate(0 0)"><g transform="translate(0)"><path class="a" d="M577.8,488.209s.326-.475.659-.447.34.217.8.574a4.871,4.871,0,0,0,.982.638.568.568,0,0,1,.324.215.881.881,0,0,1-.635-.076c-.354-.174-1.152-.7-1.417-.778a.758.758,0,0,0-.438-.011S577.813,488.406,577.8,488.209Z" transform="translate(-553.515 -467.287)"/><path class="a" d="M578.636,515.461s-.012.322.175.449a.6.6,0,0,0,.251.056,5.7,5.7,0,0,1,.853.081,2.265,2.265,0,0,0,.351.019c.132-.01.17-.058.178-.1s-.066-.13-.412-.188-.954-.312-1.165-.347-.208,0-.231.034" transform="translate(-554.316 -493.778)"/><path class="a" d="M587.74,471.347a.4.4,0,0,0,.2.134c.106.012.136-.052.136-.144s-.062-.278-.168-.3-.159.219-.173.311" transform="translate(-563.038 -451.263)"/><path class="a" d="M653.39,522.642s.072.17.5.131a1.071,1.071,0,0,0,.344-.119c.071-.067.084-.12-.041-.129s-.352.053-.473.037-.328-.041-.331.08" transform="translate(-625.93 -500.59)"/><path class="a" d="M606.939,450.111a2.564,2.564,0,0,0,2.025,1.041c1.4.057,1.992-.649,2.946-.653a8.036,8.036,0,0,1,1.174.011s.11.012.013-.089a1.84,1.84,0,0,0-1.462-.3,6.919,6.919,0,0,1-2.768.559,2.246,2.246,0,0,1-1.973-1.326,4.316,4.316,0,0,1-.293-.966s-.042-.05-.178.114-.132.875.517,1.613" transform="translate(-580.866 -429.557)"/><path class="a" d="M622,341.6a3.87,3.87,0,0,0-.178.538c-.038.2-.126.224-.141.362s-.02.759.981,1.507c0,0,.317.482,1.392.471a5.5,5.5,0,0,0,1.568-.364,2.689,2.689,0,0,1,1.859-.158c1.115.268,1.21.269,1.21.269s.288,0,.146-.134a3.818,3.818,0,0,0-1.785-.551,3.612,3.612,0,0,0-1.872.267c-.541.221-1.983.652-2.588-.453a1.533,1.533,0,0,1,.61-2.344,2.621,2.621,0,0,1,2.123.223,2.069,2.069,0,0,0,1.757.352,1.882,1.882,0,0,0,1.353-2.216,2.189,2.189,0,0,0-2.036-1.435s-1.1.114-1.147.622a.112.112,0,0,0,.142.043,1.526,1.526,0,0,1,1.509-.228,1.84,1.84,0,0,1,1.182,1.8,1.447,1.447,0,0,1-1.093,1.077c-.611.175-1.953-.6-2.215-.668A2.19,2.19,0,0,0,622,341.6" transform="translate(-595.546 -323.749)"/><path class="a" d="M659.08,357.174a2.058,2.058,0,0,1,.207-.35.337.337,0,0,1,.177-.045,3.153,3.153,0,0,1,1.428.334c.726.355,1.144.586,1.447.472,0,0,.489-.1.562-.489a.6.6,0,0,0-.332-.749,1.13,1.13,0,0,0-.833,0,2.824,2.824,0,0,1-1.006.3c-.344.007-.1-.134-.017-.178s.495-.188.611-.27.478-.379.777-.336.924.189,1.126.583a1.042,1.042,0,0,1-.319,1.3c-.455.334-1.511-.02-1.817-.166a3.051,3.051,0,0,0-2.009-.408" transform="translate(-631.381 -340.922)"/><path class="a" d="M711.386,378.28s.113.014.122-.06-.015-.141-.106-.151-.136.021-.134.081a.152.152,0,0,0,.118.13" transform="translate(-681.378 -362.201)"/><path class="a" d="M720.87,373.936s.043.163.3.205.468,0,.531-.164a.268.268,0,0,0-.123-.358c-.119-.056-.192-.071-.176,0s.059.11,0,.188a.212.212,0,0,1-.2.093c-.073-.008-.28-.072-.33.041" transform="translate(-690.576 -357.893)"/><path class="a" d="M668.619,342.723l-.176.855s-.067.183.063.11a.606.606,0,0,0,.341-.426.908.908,0,0,0-.183-.568c-.055-.008-.044.029-.044.029" transform="translate(-640.335 -328.312)"/><path class="a" d="M675.23,319.7l.054.436s.51.237.588.6a1.08,1.08,0,0,1-.062.67c-.027.079.023.093.063.1s.23-.119.3-.466a1.1,1.1,0,0,0-.941-1.338" transform="translate(-646.853 -306.285)"/><path class="a" d="M669.815,296.32l.089.348a.161.161,0,0,0,.117.142,1.662,1.662,0,0,1,.955.42c.389.379.406.688.531.656s.094-.215.052-.334a4.015,4.015,0,0,0-.273-.472,1.28,1.28,0,0,0-.817-.663c-.538-.126-.662-.156-.656-.1" transform="translate(-641.666 -283.858)"/><path class="a" d="M650.594,420.92s.413.505,1.525.03a5.625,5.625,0,0,1,1.984-.344c.711.107,1.481.542,1.952.436,0,0,.183-.031.2-.074s-.013-.035-.13-.072a12.175,12.175,0,0,0-1.685-.587,3.964,3.964,0,0,0-1.8.16c-.62.226-1.773.71-2.132-.292,0,0-.137-.7.45-.867a1.986,1.986,0,0,1,1.516.365,2.929,2.929,0,0,0,1.748.3,2.574,2.574,0,0,0,1.285-.5c.147-.146.121-.292-.059-.228s-.446.133-.5.155-.085.128-.268.2a2.089,2.089,0,0,1-1.6-.081c-.787-.349-1.582-.821-2.344-.555a1.16,1.16,0,0,0-.139,1.952" transform="translate(-622.807 -401.309)"/><path class="a" d="M671.58,441.372s-.011.412.641.244.545-.291.545-.291a1.331,1.331,0,0,0-.6-.282c-.26-.01-.542.033-.591.33" transform="translate(-643.356 -422.53)"/><path class="a" d="M397.174,469.13s-.147.177-.084.241a.279.279,0,0,0,.3.025.475.475,0,0,0-.216-.265" transform="translate(-380.379 -449.439)"/><path class="a" d="M254.707,483.372a1.169,1.169,0,0,0-.9-.134,1.758,1.758,0,0,0-.374.216c-.208.153-.5.328-.757.5a1.994,1.994,0,0,1-1.6.328,4.391,4.391,0,0,1-2.076-.583,1.624,1.624,0,0,0-.673-.367c-.323-.049-.484-.042-.5-.151s.246-.228.529-.208.869.514,1.323.7a4.3,4.3,0,0,0,2.347.218,5.761,5.761,0,0,0,1.558-1.075,1.033,1.033,0,0,1,.9.034.712.712,0,0,1,.42.522c.03.1-.139,0-.189,0" transform="translate(-237.392 -462.463)"/><path class="a" d="M365.774,506.476a11.082,11.082,0,0,1,1-.6c.21-.079.254-.064.533.01a2.637,2.637,0,0,1,.47.171l-.116.351s-.147-.162-.613-.1a1.913,1.913,0,0,0-.783.3c-.144.063-.615.086-.492-.141" transform="translate(-350.375 -484.595)"/><path class="a" d="M319.716,526.587s.659-.091.841-.144.278,0,.268.065-.042.151-.407.237-.984.236-1.266,0,.37-.1.564-.16" transform="translate(-305.663 -504.323)"/><path class="a" d="M223,490.286s.013.144.336.163.382-.047.386-.116-.092-.223-.326-.223-.393.1-.4.176" transform="translate(-213.616 -469.537)"/><path class="a" d="M209.784,448.327a1.169,1.169,0,0,0,.465-.088c.22-.1.965-.361,1.229-.191A6.668,6.668,0,0,0,214,449.231a2.256,2.256,0,0,0,1.8-.45,2.753,2.753,0,0,0,.7-1.279s.024-.225.1-.161a3.009,3.009,0,0,1,.273.354c.034.049.068.1-.007.23a3.308,3.308,0,0,1-1.351,1.46,3.785,3.785,0,0,1-3.037-.286,2.847,2.847,0,0,0-1.6-.631,9.781,9.781,0,0,1-1.364.1c-.24-.071-.142-.172-.048-.209a1.258,1.258,0,0,1,.321-.036" transform="translate(-200.55 -428.553)"/><path class="a" d="M192.2,354.969a2.386,2.386,0,0,0,1.068.121,4.062,4.062,0,0,1,1.439-.274,12.694,12.694,0,0,1,2.27.908,1.725,1.725,0,0,0,1.686-.079A1.442,1.442,0,0,0,197.69,353a18.119,18.119,0,0,0-1.837.381,2.155,2.155,0,0,1-2.24-.44c-.791-.8-.4-1.534.365-1.981,0,0,.454-.367,1.63-.1,0,0,1.34.4,1.832-.042,0,0,.012-.274-.117-.367a.606.606,0,0,0-.21.073,2.431,2.431,0,0,1-1.51.017,2.359,2.359,0,0,0-2.683.845c-.621,1,.3,2.14,1.208,2.413a4.4,4.4,0,0,0,2.428-.2,3.412,3.412,0,0,1,1.674-.179,1.266,1.266,0,0,1,.631,1.176,1.233,1.233,0,0,1-1.7.768,19.458,19.458,0,0,0-2.439-.995,6.38,6.38,0,0,0-1.592.387,9.172,9.172,0,0,1-1.121-.011c-.088.037-.092.156.182.226" transform="translate(-183.88 -335.743)"/><path class="a" d="M182.792,472.419l.745.077s.008.175-.3.215a.562.562,0,0,1-.435-.092c-.055-.014-.114-.2-.014-.2" transform="translate(-175.045 -452.59)"/><path class="a" d="M194.857,391.1a1.094,1.094,0,0,1-.11-.577c0-.4.01-.674.111-.631s.035.414.1.587a2.581,2.581,0,0,0,1.056,1.308s.108.148-.343.047a1.34,1.34,0,0,1-.813-.734" transform="translate(-186.549 -373.521)"/><path class="a" d="M234.291,369.907a5.56,5.56,0,0,1-1.434-.115c-.58-.16-1.443-.294-1.814.411s.422,1.244.955,1.3a4.631,4.631,0,0,0,1.794-.27,3.916,3.916,0,0,1,1.55-.306c.395.052.333.019.265-.074s-.193-.256-.193-.256-.067-.009-.333-.024a3.613,3.613,0,0,0-1,.107,4.46,4.46,0,0,1-1.724.459c-.711-.037-.962-.383-.878-.693s.421-.386.692-.4a2.174,2.174,0,0,1,.646.109,3.936,3.936,0,0,0,1.434.124,1.816,1.816,0,0,0,.852-.184.059.059,0,0,0,.021-.1c-.057-.069-.077-.243-.16-.247a4.817,4.817,0,0,1-.674.16" transform="translate(-221.229 -354.151)"/><path class="a" d="M229.1,324.3a1.817,1.817,0,0,1,1.023-.547c.533-.025,1.381.21,1.791.2s.252-.194.218-.233-.147-.177-.147-.177-.008-.124.165-.092.492.21.43.471a.49.49,0,0,1-.438.377,9.029,9.029,0,0,1-1.714-.23,1.6,1.6,0,0,0-1.328.233" transform="translate(-219.46 -309.872)"/><path class="a" d="M270.85,308.153s.025.144.246.105.331-.126.331-.176-.185-.1-.346-.084a.311.311,0,0,0-.23.154" transform="translate(-259.456 -295.072)"/><path class="a" d="M289.771,306.269s-.077.051-.01.1a8.743,8.743,0,0,1,.939.323c.291.164.314.159.344.034s.107-.261-.094-.328a1.581,1.581,0,0,0-1.179-.128" transform="translate(-277.547 -293.342)"/><path class="a" d="M303.669,291.09s-.155.042-.053.131a1.753,1.753,0,0,0,.692.178s.128.028.154-.072.036-.18-.16-.227a1.3,1.3,0,0,0-.633-.009" transform="translate(-290.813 -278.842)"/><path class="a" d="M278.95,430.159a15.184,15.184,0,0,1,1.845-.531.761.761,0,0,1,.931.543.636.636,0,0,1-.854.673,1.552,1.552,0,0,1-.438-.3s.032-.071.376-.067.421-.077.384-.246-.361-.3-.8-.285-.738.372-1.44.215" transform="translate(-267.216 -411.586)"/><path class="a" d="M476.85,514.93h.363v-.8h-.363Z" transform="translate(-456.805 -492.549)"/><path class="a" d="M505.24,514.93h.364v-.8h-.364Z" transform="translate(-484.002 -492.549)"/><path class="a" d="M533.069,514.921h-.363l-.086-.8h.364Z" transform="translate(-510.233 -492.539)"/><path class="a" d="M447.43,514.921h.363l.087-.8h-.363Z" transform="translate(-428.62 -492.539)"/><path class="a" d="M528.43,203.641s0,.257.6.391a7.122,7.122,0,0,0,1.16.183c.191.008.255-.077.146-.2a3.027,3.027,0,0,0-1.111-.525c-.561-.158-.751,0-.794.147" transform="translate(-506.218 -194.896)"/><path class="a" d="M582.42,220.24s.373.28.257.391-.434-.137-.477-.159-.408-.262-.281-.391c.071-.072.5.159.5.159" transform="translate(-557.436 -210.836)"/><path class="a" d="M539.037,233.243a.81.81,0,0,0,.452.391,9.913,9.913,0,0,0,1.246.257c.136.014.3-.068.318-.159s-.124-.252-.489-.44a4.907,4.907,0,0,0-1.258-.391c-.181-.008-.307.1-.269.342" transform="translate(-516.374 -223.13)"/><path class="a" d="M597.063,251.425a.687.687,0,0,0,.305.44c.252.144.572.286.635.183s-.092-.329-.269-.5-.686-.462-.672-.122" transform="translate(-571.969 -240.726)"/><path class="a" d="M547.855,270.648s-.091.393.757.574c0,0,.432.058.648.11s.6.183.708.11.211-.344-.22-.647a2.449,2.449,0,0,0-1.746-.4c-.133.034-.147.257-.147.257" transform="translate(-524.825 -259.009)"/><path class="a" d="M610.7,290.8s-.051.343.391.513.479.125.525.073.062-.3-.207-.525-.448-.31-.586-.244a.185.185,0,0,0-.123.183" transform="translate(-585.031 -278.4)"/><path class="a" d="M547.785,313.882s-.212.425.794.574,1.215.094,1.307-.025-.01-.446-.623-.623-1.248-.382-1.478.074" transform="translate(-524.742 -300.446)"/><path class="a" d="M542.7,353.3a.344.344,0,0,0,.2.55,5.226,5.226,0,0,0,1.27.195.282.282,0,0,0,.061-.537c-.358-.223-1.32-.562-1.526-.208" transform="translate(-519.817 -338.328)"/><path class="a" d="M591.414,366.839s-.133.3.317.342.5,0,.538-.1.008-.3-.318-.415-.461-.045-.538.17" transform="translate(-566.539 -351.23)"/><path class="a" d="M532.5,391.274a.427.427,0,0,1,.488-.317c.389.068.949.183.916.415s-.394.282-.977.257c-.432-.019-.428-.354-.428-.354" transform="translate(-510.117 -374.541)"/><path class="a" d="M575.108,399.444s.008-.21.281-.147.428.2.4.294-.2.168-.452.146-.309-.13-.232-.293" transform="translate(-550.905 -382.528)"/><path class="a" d="M522.179,424.237s-.158.091-.159.22a.288.288,0,0,0,.281.257c.164.021.875.053.855-.2s-.584-.3-.977-.281" transform="translate(-500.078 -406.429)"/><path class="a" d="M557.749,428.257s-.048.172.305.159.359-.083.33-.134a.51.51,0,0,0-.4-.208.223.223,0,0,0-.232.183" transform="translate(-534.304 -410.107)"/><path class="a" d="M516.749,447.1s-.051.264.391.244.391-.159.391-.159-.076-.2-.525-.22c-.229-.01-.257.134-.257.134" transform="translate(-495.027 -428.208)"/><path class="a" d="M543.85,450.858s0,.149.22.147.279-.047.281-.073-.044-.194-.305-.183a.211.211,0,0,0-.2.11" transform="translate(-520.991 -431.828)"/><path class="a" d="M514.6,465.4s-.062.116.2.134.316-.032.33-.1-.042-.166-.244-.184-.266.05-.281.147" transform="translate(-492.963 -445.718)"/><path class="a" d="M534.674,467.955s-.067.148.22.157c0,0,.16.025.158-.052s-.113-.149-.232-.157-.147.052-.147.052" transform="translate(-512.194 -448.263)"/><path class="a" d="M515.043,482.256s-.019.173.134.171.2-.1.2-.146a.18.18,0,0,0-.171-.123.254.254,0,0,0-.158.1" transform="translate(-493.393 -461.92)"/><path class="a" d="M530,482.131s.119.01.134-.1a.129.129,0,0,0-.134-.146.12.12,0,0,0-.11.11.123.123,0,0,0,.11.134" transform="translate(-507.617 -461.659)"/><path class="a" d="M607.42,329.782s-.079.354.379.488.611-.03.586-.171a.529.529,0,0,0-.4-.44c-.308-.1-.439-.153-.562.122" transform="translate(-581.886 -315.748)"/><path class="a" d="M354.506,179.75a6.185,6.185,0,0,0-2,2.742h-1.6a1.22,1.22,0,0,1-.294-.106.075.075,0,0,0-.029-.008.048.048,0,0,0-.015-.014l-.006-.005-.023-.027a.227.227,0,0,1,0-.05h.011a.253.253,0,0,1,.078-.1s-.012-.012.232-.012.446-.025.538-.159-.189-.22-.472-.232a.607.607,0,0,1-.493-.208c-.055-.086.36-.1.635-.122s.446-.055.427-.22-.25-.183-.513-.183-.653-.018-.684-.183.379-.183.627-.183.722-.073.631-.318-.531-.183-.855-.183-.452-.012-.525-.134.073-.208.073-.208c.336-.11.977.018,1.331-.1s.183-.5-.025-.574-1.13.024-1.441-.012-.4-.354-.013-.488,1.527-.006,1.833-.1.354-.281.159-.549-1.411-.244-1.991-.2-.513-.281-.513-.281c-.049-.709,1.905-.4,2.5-.525s.574-.3.44-.562-.879-.281-1.319-.318-1.912.287-1.918-.257,1.629-.525,2.418-.488,1.118-.226,1.136-.306.061-.305-.354-.5a5.894,5.894,0,0,0-2.211-.1c-.739.067-1.008-.067-1.038-.269s.22-.458.769-.525,2.156-.042,2.37-.074.464-.177.477-.354-.269-.318-.269-.318a6.875,6.875,0,0,0-1.991-.269,4.931,4.931,0,0,0-.94.122s-.33.055-.33-.22c0-.443.812-.488,1.592-.562s1.535.042,1.547-.39-1.374-.489-1.881-.44-1.014.128-.977-.11.495-.427,1.417-.427,1.031-.178,1.05-.269-.141-.3-.354-.366a4.2,4.2,0,0,0-1.185-.049c-.383.037-.648.012-.464-.2a2.441,2.441,0,0,1,1.225-.268,4.332,4.332,0,0,1,2.3.423c.051.019.1.04.155.062.208.074.414.156.616.245.081.036.158.074.232.115a5.942,5.942,0,0,1,2.253,4.658,7.228,7.228,0,0,1-2.357,4.743m-4.479,2.561a.332.332,0,0,1-.22.035.1.1,0,0,0-.017,0,.43.43,0,0,1-.057-.04.512.512,0,0,1-.022-.057.122.122,0,0,1,.017-.057.325.325,0,0,1,.171-.061.174.174,0,0,1,.171.11.055.055,0,0,1-.005.038h.019a.224.224,0,0,0-.056.031m-.532-.63c-.015-.043.107-.09.208-.11a.241.241,0,0,1,.256.1c.027.074-.021.138-.232.147s-.232-.134-.232-.134m-.266.674c-.133,0-.057-.114.041-.114.134,0,.057.114-.041.114m-.121-.722c.266,0,.113.228-.082.228-.266,0-.113-.228.082-.228m-.3-.717c.355,0,.151.3-.109.3-.354,0-.151-.3.109-.3m-.5-.481c-.1.023-.319.015-.318-.134s.232-.2.232-.2c.1-.034.323.029.33.147s-.141.16-.244.183m-.965-1.039c-.072-.086.062-.169.244-.208a.563.563,0,0,1,.416.05c.047.048.111.128-.22.232s-.44-.073-.44-.073m-.147-2.98c-.044-.342.192-.338.55-.489s1.018-.212,1.05.086-.582.436-1.062.562-.537-.159-.537-.159m-.354,1.979c-.38.054-.378-.147-.378-.147-.005-.144.217-.22.342-.281a.333.333,0,0,1,.378.122c.048.1.038.252-.342.306m-1.062-1.417c.01-.1.057-.253.329-.379a.489.489,0,0,1,.514,0c.037.047.144.188-.33.4s-.513-.024-.513-.024m-.477-1.5c-.02-.175.167-.285.5-.5s.464-.1.489.037.061.281-.465.476-.525-.013-.525-.013m.391-1.918c.42-.273.586-.183.611-.159s.139.232-.44.513-.537.024-.537.024-.053-.106.366-.378m.488-1.649c.269-.2.505-.24.562-.159s.069.212-.452.452-.513.147-.513.147c-.077-.113.135-.24.4-.439m.879-1.234c.179-.134.371-.151.4-.1s-.073.183-.354.318-.354.037-.354.037c.008-.069.127-.122.305-.257m1.882.5c.065.151-.488.412-1.063.562s-.525-.1-.525-.1a1.242,1.242,0,0,1,.684-.415c.444-.147.839-.2.9-.05m.11,6.389c.068.057.067.244-.134.341a2.732,2.732,0,0,1-.672.183.323.323,0,0,1-.33-.146s-.195-.289.428-.4.64-.032.708.025m-1.307-2.663c-.769.22-.806,0-.806,0-.062-.244.158-.391.672-.562s1.1-.257,1.136-.025-.232.367-1,.587m.134-1.6c-.8.281-.892-.025-.892-.025-.025-.305.207-.341.818-.562s1.02-.207,1.051-.036-.178.342-.977.623m1.4,5.986c-.2.055-.729.1-.806-.086s.306-.328.44-.342c0,0,.515-.081.562.1s0,.274-.2.33m.586,1.685c.008.039-.008.178-.306.183s-.318-.158-.318-.158c.005-.077.064-.173.318-.183s.3.12.306.158m-.464-.733c-.249.024-.517,0-.513-.134s.3-.192.452-.208.426-.042.44.147-.378.2-.378.2m-.574-10.285s.578-.187.623-.024-.538.318-.538.318c-.077.02-.562.228-.611.074s.525-.367.525-.367m2.08-1.294a6.345,6.345,0,0,0-6.345,6.345,6.759,6.759,0,0,0,2.555,5.089A5.067,5.067,0,0,1,349,182.888h3.822a5.351,5.351,0,0,1,1.947-2.843,7.588,7.588,0,0,0,2.49-5.04,6.346,6.346,0,0,0-6.346-6.345" transform="translate(-330.08 -161.588)"/><path class="a" d="M550.69,542.53l.222,1.35s.585-.118.487-.641c-.052-.273-.581-.376-.709-.709" transform="translate(-527.544 -519.756)"/><path class="a" d="M424.175,542.53l-.222,1.35s-.585-.118-.487-.641c.052-.273.581-.376.709-.709" transform="translate(-405.652 -519.756)"/><path class="a" d="M533.6,540.871a.128.128,0,0,0,.1-.078.691.691,0,0,0,.069-.323h-.42c.014.249.149.4.247.4" transform="translate(-510.932 -517.783)"/><path class="a" d="M462.124,540.952a.747.747,0,0,0,.451-.138.47.47,0,0,0,.19-.354H461.47a.593.593,0,0,0,.654.492" transform="translate(-442.071 -517.773)"/><path class="a" d="M497.844,540.952a.743.743,0,0,0,.45-.138.471.471,0,0,0,.191-.354H497.19a.594.594,0,0,0,.654.492" transform="translate(-476.29 -517.773)"/><path class="a" d="M446.745,540.774a.127.127,0,0,0,.1.078c.1,0,.232-.152.247-.4h-.406l-.01.084a.592.592,0,0,0,.065.24" transform="translate(-427.902 -517.763)"/><path class="a" d="M443.049,552.094a3.665,3.665,0,0,1-1.164-.2h2.241a2.855,2.855,0,0,1-1.078.2Zm2.035-2.569-.015.03a.322.322,0,0,1-.278.178.412.412,0,0,1-.326-.2c.047.5.331.457.331.7h0s0,0,0,.007a.377.377,0,0,1-.748,0s0-.005,0-.007h0c0-.24.287-.194.331-.707a.89.89,0,0,1-.7.3.971.971,0,0,1-.58-.18.73.73,0,0,1-.136-.133c.042.522.333.475.333.716h0s0,0,0,.007a.377.377,0,0,1-.748,0s0-.005,0-.007h0c0-.24.288-.194.332-.707a.891.891,0,0,1-.7.3.971.971,0,0,1-.58-.18.713.713,0,0,1-.136-.133c.042.523.333.475.333.716h0s0,0,0,.007a.377.377,0,0,1-.748,0s0-.005,0-.007h0c0-.233.271-.2.328-.663a.4.4,0,0,1-.3.169.3.3,0,0,1-.218-.1l-.138,1.168-.065.529a.57.57,0,0,0,.57.57h.125a3.09,3.09,0,0,0,3.309,0h.074a.57.57,0,0,0,.57-.57Z" transform="translate(-422.125 -526.443)"/><path class="a" d="M330.055,671.1l-.559-.018a.388.388,0,0,0-.062.218c0,.2.18.153.18.291,0,0,.008.648-.01.732a1.016,1.016,0,0,1-.674.148,1.531,1.531,0,0,1-1.6-1.38,1.418,1.418,0,0,1,1.5-1.343c.549,0,1.249.139,1.3.575.009.111.21.1.3.1a2.084,2.084,0,0,0,.162-.787,4.242,4.242,0,0,0-1.9-.4c-1.133,0-2.337.538-2.337,1.881,0,1.325,1.348,1.909,2.454,1.909a5.3,5.3,0,0,0,1.734-.324v-1.127c.01-.119.139-.084.139-.276a.389.389,0,0,0-.062-.218c-.341.015-.227.016-.571.018" transform="translate(-312.635 -641.145)"/><path class="a" d="M140.147,673.167a1.813,1.813,0,0,0-.225-.065c-.184-.042-.177.2-.656.2h-.053a7.861,7.861,0,0,1-1.1-.139,2.9,2.9,0,0,1-.013-.487,1.781,1.781,0,0,1,.035-.564c.026-.055.22-.032.338-.032a3.355,3.355,0,0,1,.836.111.764.764,0,0,0,.18-.425v-.131h-1.3c-.135,0-.1-.309-.1-.568,0-.242-.021-.564.06-.564a6.967,6.967,0,0,1,1.24.047c.107.027.162.121.242.2,0,0,.128,0,.192,0l.1-.018a.581.581,0,0,0,.007-.219.338.338,0,0,0-.488-.415c-.521.009-1,.025-1.517.025-.43,0-.689-.023-.976-.039a.38.38,0,0,0-.039.205c0,.287.234.237.234.347v2.516c0,.167-.278.121-.278.4a.81.81,0,0,0,.072.213,2.077,2.077,0,0,1,.745-.129c.585,0,1.159.139,1.76.138h.045a1.321,1.321,0,0,0,.271-.018,3.444,3.444,0,0,0,.384-.538s.03-.044,0-.056" transform="translate(-131.103 -641.959)"/><path class="a" d="M226.76,674.039a.993.993,0,0,0-.225-.065c-.16-.016-.176.2-.682.2a7.256,7.256,0,0,1-.773-.065c-.045-.01-.35-.028-.35-.1v-2.492c0-.14.224-.093.224-.3a.4.4,0,0,0-.063-.222c-.349.015-.7.005-1.056.006l-.22-.006a.4.4,0,0,0-.062.222c0,.2.225.157.225.3v2.511c0,.167-.287.121-.287.4a.612.612,0,0,0,.081.213,2.046,2.046,0,0,1,.745-.129c.593,0,1.2.139,1.789.139a1.325,1.325,0,0,0,.27-.018,3.482,3.482,0,0,0,.385-.538s.029-.043,0-.056" transform="translate(-214.085 -642.831)"/><path class="a" d="M522.3,673.813a1.3,1.3,0,1,1,1.291-1.3,1.3,1.3,0,0,1-1.291,1.3m0-3.183a1.915,1.915,0,1,0,2.258,1.884,2.1,2.1,0,0,0-2.258-1.884" transform="translate(-498.181 -642.476)"/><path class="a" d="M448.5,674.039a.977.977,0,0,0-.224-.065c-.16-.016-.178.2-.683.2a7.293,7.293,0,0,1-.773-.065c-.045-.01-.349-.028-.349-.1v-2.492c0-.14.223-.093.223-.3a.4.4,0,0,0-.062-.222c-.349.015-.705.005-1.057.006l-.218-.006a.394.394,0,0,0-.064.222c0,.2.225.157.225.3v2.511c0,.167-.287.121-.287.4a.6.6,0,0,0,.081.213,2.046,2.046,0,0,1,.745-.129c.593,0,1.195.139,1.788.139a1.327,1.327,0,0,0,.271-.018,3.429,3.429,0,0,0,.385-.538s.031-.043,0-.056" transform="translate(-426.513 -642.831)"/><path class="a" d="M739.1,673.813a1.3,1.3,0,1,1,1.291-1.3,1.3,1.3,0,0,1-1.291,1.3m0-3.183a1.915,1.915,0,1,0,2.258,1.884,2.1,2.1,0,0,0-2.258-1.884" transform="translate(-705.876 -642.476)"/><path class="a" d="M637.973,673.015a2.253,2.253,0,0,1-.565-.1v-1.095s.063,0,.417-.015,1.145-.025,1.145.569c0,.491-.545.643-1,.643Zm-.565-2.6c0-.02.134-.019.134-.019.179-.008.332-.025.512-.025.287,0,.618-.01.724.283a.327.327,0,0,1,.03.134c0,.609-.674.674-1.095.674-.042.007-.305.005-.305.005Zm1.967,1.059a1.049,1.049,0,0,0,.369-.806c0-.769-.935-.88-1.511-.853-.44.018-.9.065-1.347.065a2.677,2.677,0,0,1-.595-.065.333.333,0,0,0-.088.231c0,.3.243.213.243.352v2.561c-.005.056-.155.078-.225.159a.287.287,0,0,0-.035.158.373.373,0,0,0,.1.213,3.013,3.013,0,0,1,1.124-.077l.49.081h0l.059.01h0a2.132,2.132,0,0,0,.319.027c.709,0,1.675-.306,1.706-1.2a.9.9,0,0,0-.611-.861Z" transform="translate(-609.448 -641.692)"/><path class="a" d="M267.03,786.608a.563.563,0,0,1-.136.109.255.255,0,0,1-.116.031.174.174,0,0,1-.089-.021.143.143,0,0,1-.054-.057.289.289,0,0,1-.026-.084.738.738,0,0,1,.026-.321.708.708,0,0,1,.083-.181.494.494,0,0,1,.123-.127.239.239,0,0,1,.139-.047.228.228,0,0,1,.087.015.14.14,0,0,1,.054.039.122.122,0,0,1,.029.055.25.25,0,0,1,.007.062Zm.029.2a.154.154,0,0,0,.113.041.318.318,0,0,0,.106-.016c.029-.01.072-.027.131-.051l.015-.063a.305.305,0,0,1-.053.013.339.339,0,0,1-.053.005.122.122,0,0,1-.079-.02.1.1,0,0,1-.023-.076.34.34,0,0,1,.008-.064c.005-.029.011-.054.017-.074l.15-.634-.012-.015-.18.046a.387.387,0,0,0-.1-.042.45.45,0,0,0-.133-.019.459.459,0,0,0-.213.054.59.59,0,0,0-.18.141.681.681,0,0,0-.125.207.636.636,0,0,0-.045.237.436.436,0,0,0,.081.279.268.268,0,0,0,.223.1.256.256,0,0,0,.1-.018.508.508,0,0,0,.084-.042.551.551,0,0,0,.07-.052c.02-.018.037-.033.052-.045h.006a.159.159,0,0,0,.045.106Zm-.7-1.465a.074.074,0,0,0-.055-.022.143.143,0,0,0-.069.017.2.2,0,0,0-.067.07q-.043.065-.081.119c-.025.036-.071.1-.135.184l.035.032c.083-.062.149-.111.2-.146s.089-.064.119-.087a.315.315,0,0,0,.057-.053.1.1,0,0,0,.018-.064.068.068,0,0,0-.022-.049Zm-.142,1.394a.474.474,0,0,1-.053,0,.126.126,0,0,1-.081-.021.1.1,0,0,1-.025-.077.314.314,0,0,1,.007-.06c0-.024.01-.049.017-.075l.105-.418c.005-.02.009-.041.012-.061s0-.036,0-.048a.144.144,0,0,0-.036-.1.155.155,0,0,0-.117-.039.38.38,0,0,0-.1.017,1.016,1.016,0,0,0-.137.051l-.015.063.054-.012a.288.288,0,0,1,.057-.007.106.106,0,0,1,.074.018.1.1,0,0,1,.018.073.452.452,0,0,1-.007.067c-.005.026-.01.051-.015.074l-.1.418c-.005.025-.01.045-.013.062a.38.38,0,0,0,0,.047.14.14,0,0,0,.039.1.157.157,0,0,0,.118.04.36.36,0,0,0,.092-.014,1.427,1.427,0,0,0,.145-.05l.015-.063a.268.268,0,0,1-.053.012Zm-.49-.815a.117.117,0,0,0-.032-.047.115.115,0,0,0-.05-.027.246.246,0,0,0-.061-.008.226.226,0,0,0-.126.04,2.054,2.054,0,0,0-.177.142h-.006a.208.208,0,0,0-.033-.128.134.134,0,0,0-.112-.042.386.386,0,0,0-.1.016,1.055,1.055,0,0,0-.136.052l-.015.063.052-.013a.255.255,0,0,1,.055-.007.074.074,0,0,1,.093.092.414.414,0,0,1-.009.069c-.006.032-.011.056-.015.071l-.143.637h.183l.158-.7a.775.775,0,0,1,.1-.1.5.5,0,0,1,.087-.056.358.358,0,0,1,.065-.025.226.226,0,0,1,.039-.006c-.01.025-.021.05-.03.075a.187.187,0,0,0-.015.068.079.079,0,0,0,.026.059.131.131,0,0,0,.14.012.151.151,0,0,0,.039-.041.147.147,0,0,0,.022-.054.253.253,0,0,0,.008-.06.223.223,0,0,0-.011-.079Zm-1.187.256a.3.3,0,0,1-.121.109.591.591,0,0,1-.143.047c-.058.012-.109.021-.155.028a.657.657,0,0,1,.126-.323.279.279,0,0,1,.217-.129l.041,0a.09.09,0,0,1,.037.015.077.077,0,0,1,.027.033.14.14,0,0,1,.011.06.3.3,0,0,1-.04.157Zm.152-.28a.321.321,0,0,0-.21-.058.5.5,0,0,0-.234.056.568.568,0,0,0-.178.148.679.679,0,0,0-.113.205.707.707,0,0,0-.039.237.387.387,0,0,0,.092.276.348.348,0,0,0,.266.1.463.463,0,0,0,.244-.072.624.624,0,0,0,.2-.191l-.056-.042a.591.591,0,0,1-.148.146.306.306,0,0,1-.173.049.191.191,0,0,1-.168-.082.409.409,0,0,1-.058-.237c.076-.009.144-.021.207-.034a1.479,1.479,0,0,0,.184-.054.447.447,0,0,0,.191-.119.263.263,0,0,0,.065-.178.189.189,0,0,0-.07-.147Zm-1.1.936c.04-.013.084-.028.129-.045l.017-.071a.369.369,0,0,1-.071.016.666.666,0,0,1-.072.006.146.146,0,0,1-.1-.025.1.1,0,0,1-.027-.079.336.336,0,0,1,.006-.059c0-.023.008-.047.015-.072l.126-.541h.272l.02-.089h-.273l.067-.288h-.177l-.068.288h-.179l-.021.089h.176l-.153.656c0,.018-.005.032-.008.046a.344.344,0,0,0,0,.042.138.138,0,0,0,.043.109.2.2,0,0,0,.136.037.473.473,0,0,0,.143-.019Zm-.663-.066a.3.3,0,0,0,.115-.244.213.213,0,0,0-.06-.154.519.519,0,0,0-.194-.11.554.554,0,0,1-.148-.073.123.123,0,0,1-.045-.1.172.172,0,0,1,.05-.123.2.2,0,0,1,.146-.052.238.238,0,0,1,.039,0,.184.184,0,0,1,.034.01c.008.02.015.04.022.06a.253.253,0,0,0,.025.057.121.121,0,0,0,.039.042.107.107,0,0,0,.06.016.087.087,0,0,0,.071-.033.111.111,0,0,0,.027-.073.11.11,0,0,0-.032-.08.224.224,0,0,0-.079-.047.468.468,0,0,0-.1-.022c-.03,0-.057,0-.082,0a.421.421,0,0,0-.277.092.273.273,0,0,0-.113.218.224.224,0,0,0,.022.1.234.234,0,0,0,.057.074.312.312,0,0,0,.079.052.59.59,0,0,0,.085.036.519.519,0,0,1,.152.073.129.129,0,0,1,.051.107.194.194,0,0,1-.054.144.223.223,0,0,1-.161.053.157.157,0,0,1-.075-.015.153.153,0,0,1-.041-.031c-.005-.015-.012-.034-.019-.058a.307.307,0,0,0-.026-.061.137.137,0,0,0-.038-.042.1.1,0,0,0-.063-.018.088.088,0,0,0-.069.034.115.115,0,0,0-.029.074.152.152,0,0,0,.1.135.518.518,0,0,0,.243.052.443.443,0,0,0,.289-.094Zm-.935-.359a.749.749,0,0,1-.065.189.409.409,0,0,1-.11.139.239.239,0,0,1-.155.055.164.164,0,0,1-.147-.072.384.384,0,0,1-.049-.213,1.122,1.122,0,0,1,.018-.193.74.74,0,0,1,.059-.19.392.392,0,0,1,.124-.163.267.267,0,0,1,.154-.05.164.164,0,0,1,.143.07.36.36,0,0,1,.05.209,1.082,1.082,0,0,1-.024.218Zm.124-.461a.353.353,0,0,0-.273-.107.54.54,0,0,0-.235.053.559.559,0,0,0-.183.139.679.679,0,0,0-.159.443.389.389,0,0,0,.1.283.349.349,0,0,0,.264.105.531.531,0,0,0,.247-.054.58.58,0,0,0,.183-.145.61.61,0,0,0,.114-.2.712.712,0,0,0,.039-.232.393.393,0,0,0-.1-.281Zm-1.407.8a.257.257,0,0,1-.145.045.186.186,0,0,1-.129-.049.174.174,0,0,1-.06-.1l.126-.557a.63.63,0,0,1,.133-.1.235.235,0,0,1,.1-.027.2.2,0,0,1,.1.021.153.153,0,0,1,.059.059.256.256,0,0,1,.03.087.591.591,0,0,1,.01.105.836.836,0,0,1-.027.218.674.674,0,0,1-.077.183.391.391,0,0,1-.116.123Zm.339-.8a.284.284,0,0,0-.232-.1.322.322,0,0,0-.152.04.664.664,0,0,0-.143.1h-.008a.168.168,0,0,0-.044-.1.142.142,0,0,0-.1-.035.345.345,0,0,0-.1.018,1.064,1.064,0,0,0-.135.052l-.015.063.052-.013a.236.236,0,0,1,.055-.008.1.1,0,0,1,.074.018.111.111,0,0,1,.018.074.334.334,0,0,1-.007.065c0,.026-.009.05-.015.076l-.2.9a.163.163,0,0,1-.026.06.1.1,0,0,1-.049.033.288.288,0,0,1-.052.01l-.059.005-.014.062h.542l.014-.062-.055-.006a.243.243,0,0,1-.055-.012.114.114,0,0,1-.044-.022.054.054,0,0,1-.019-.042.261.261,0,0,1,0-.034.409.409,0,0,1,.01-.046l.057-.257a.424.424,0,0,0,.1.051.39.39,0,0,0,.138.021.481.481,0,0,0,.2-.046.575.575,0,0,0,.185-.142.67.67,0,0,0,.122-.2.683.683,0,0,0,.047-.25.427.427,0,0,0-.084-.273Zm-1.272.236a.3.3,0,0,1-.121.109.586.586,0,0,1-.143.047c-.058.012-.11.021-.156.028a.67.67,0,0,1,.126-.323.279.279,0,0,1,.217-.129l.04,0a.089.089,0,0,1,.037.015.077.077,0,0,1,.027.033.14.14,0,0,1,.01.06.284.284,0,0,1-.039.157Zm.152-.28a.321.321,0,0,0-.21-.058.5.5,0,0,0-.234.056.56.56,0,0,0-.178.148.691.691,0,0,0-.114.205.73.73,0,0,0-.039.237.387.387,0,0,0,.092.276.347.347,0,0,0,.265.1.465.465,0,0,0,.245-.072.629.629,0,0,0,.2-.191l-.056-.042a.6.6,0,0,1-.148.146.306.306,0,0,1-.173.049.191.191,0,0,1-.168-.082.406.406,0,0,1-.058-.237c.076-.009.144-.021.206-.034a1.469,1.469,0,0,0,.185-.054.443.443,0,0,0,.19-.119.262.262,0,0,0,.066-.178.187.187,0,0,0-.069-.147Zm-.843.024a.117.117,0,0,0-.032-.047.113.113,0,0,0-.05-.027.243.243,0,0,0-.061-.008.225.225,0,0,0-.126.04,2.034,2.034,0,0,0-.178.142h-.005a.206.206,0,0,0-.034-.128.133.133,0,0,0-.112-.042.383.383,0,0,0-.1.016.991.991,0,0,0-.136.052l-.015.063.052-.013a.258.258,0,0,1,.055-.007.108.108,0,0,1,.074.018.1.1,0,0,1,.019.074.4.4,0,0,1-.01.069c-.006.032-.01.056-.014.071l-.143.637h.183l.158-.7a.774.774,0,0,1,.1-.1.533.533,0,0,1,.087-.056.36.36,0,0,1,.065-.025.244.244,0,0,1,.039-.006l-.031.075a.194.194,0,0,0-.015.068.08.08,0,0,0,.026.059.131.131,0,0,0,.14.012.151.151,0,0,0,.039-.041.173.173,0,0,0,.023-.054.271.271,0,0,0,.008-.06.212.212,0,0,0-.011-.079Zm-1.866.688a.549.549,0,0,1-.136.109.252.252,0,0,1-.116.031.174.174,0,0,1-.089-.021.135.135,0,0,1-.054-.057.277.277,0,0,1-.027-.084.72.72,0,0,1-.007-.106.752.752,0,0,1,.032-.215.682.682,0,0,1,.084-.181.493.493,0,0,1,.122-.127.242.242,0,0,1,.139-.047.222.222,0,0,1,.086.015.138.138,0,0,1,.054.039.13.13,0,0,1,.029.055.27.27,0,0,1,.007.062Zm.03.2a.152.152,0,0,0,.113.041.306.306,0,0,0,.1-.016c.029-.01.074-.027.132-.051l.015-.063a.341.341,0,0,1-.054.013.326.326,0,0,1-.053.005.126.126,0,0,1-.08-.02.1.1,0,0,1-.024-.076.39.39,0,0,1,.008-.064c.005-.029.011-.054.016-.074l.15-.634-.012-.015-.18.046a.379.379,0,0,0-.1-.042.448.448,0,0,0-.133-.019.461.461,0,0,0-.214.054.6.6,0,0,0-.18.141.7.7,0,0,0-.124.207.636.636,0,0,0-.045.237.436.436,0,0,0,.081.279.268.268,0,0,0,.223.1.258.258,0,0,0,.1-.018.518.518,0,0,0,.084-.042.446.446,0,0,0,.07-.052l.052-.045h.007a.156.156,0,0,0,.045.106Zm-.722-1.5-.365.021-.013.06.064.007a.151.151,0,0,1,.052.012.076.076,0,0,1,.034.029.106.106,0,0,1,.012.055.154.154,0,0,1,0,.03c0,.007,0,.022-.01.042l-.239,1.035c-.005.025-.01.045-.012.062a.274.274,0,0,0,0,.048.137.137,0,0,0,.041.1.163.163,0,0,0,.119.04.356.356,0,0,0,.107-.015q.048-.014.136-.05l.015-.062a.355.355,0,0,1-.058.012.577.577,0,0,1-.058,0,.127.127,0,0,1-.081-.021.1.1,0,0,1-.025-.076.265.265,0,0,1,.008-.061c.005-.025.01-.05.017-.074l.274-1.183Zm-1.067.61a.118.118,0,0,0-.032-.047.115.115,0,0,0-.05-.027.243.243,0,0,0-.061-.008.225.225,0,0,0-.126.04,2.057,2.057,0,0,0-.177.142h-.006a.209.209,0,0,0-.033-.128.134.134,0,0,0-.112-.042.391.391,0,0,0-.1.016,1.054,1.054,0,0,0-.136.052l-.015.063.052-.013a.255.255,0,0,1,.055-.007.074.074,0,0,1,.093.092.414.414,0,0,1-.009.069c-.006.032-.011.056-.015.071l-.143.637h.183l.158-.7a.771.771,0,0,1,.1-.1.5.5,0,0,1,.087-.056.359.359,0,0,1,.065-.025.221.221,0,0,1,.039-.006c-.01.025-.021.05-.03.075a.187.187,0,0,0-.015.068.079.079,0,0,0,.026.059.131.131,0,0,0,.14.012.152.152,0,0,0,.039-.041.155.155,0,0,0,.022-.054.249.249,0,0,0,.008-.06.225.225,0,0,0-.01-.079Zm-1.215.486a.766.766,0,0,1-.065.189.418.418,0,0,1-.11.139.239.239,0,0,1-.155.055.166.166,0,0,1-.147-.072.384.384,0,0,1-.048-.213,1.124,1.124,0,0,1,.018-.193.74.74,0,0,1,.059-.19.391.391,0,0,1,.124-.163.266.266,0,0,1,.154-.05.165.165,0,0,1,.143.07.361.361,0,0,1,.049.209,1.021,1.021,0,0,1-.022.218Zm.124-.461a.355.355,0,0,0-.274-.107.54.54,0,0,0-.235.053.555.555,0,0,0-.182.139.668.668,0,0,0-.116.2.676.676,0,0,0-.043.244.389.389,0,0,0,.1.283.351.351,0,0,0,.265.105.533.533,0,0,0,.247-.054.577.577,0,0,0,.182-.145.6.6,0,0,0,.114-.2.734.734,0,0,0,.039-.232.4.4,0,0,0-.1-.281Zm-1.407.8a.257.257,0,0,1-.146.045.186.186,0,0,1-.129-.049.17.17,0,0,1-.061-.1l.126-.557a.62.62,0,0,1,.133-.1.23.23,0,0,1,.1-.027.205.205,0,0,1,.1.021.163.163,0,0,1,.059.059.266.266,0,0,1,.03.087.591.591,0,0,1,.009.105.853.853,0,0,1-.027.218.661.661,0,0,1-.077.183.388.388,0,0,1-.115.123Zm.339-.8a.283.283,0,0,0-.232-.1.32.32,0,0,0-.152.04.643.643,0,0,0-.143.1h-.008a.168.168,0,0,0-.044-.1.142.142,0,0,0-.1-.035.348.348,0,0,0-.1.018,1.115,1.115,0,0,0-.134.052l-.015.063.052-.013a.242.242,0,0,1,.055-.008.106.106,0,0,1,.074.018.114.114,0,0,1,.017.074.367.367,0,0,1-.007.065c0,.026-.01.05-.015.076l-.2.9a.152.152,0,0,1-.026.06.1.1,0,0,1-.048.033.3.3,0,0,1-.053.01l-.059.005-.013.062h.542l.014-.062-.055-.006a.252.252,0,0,1-.055-.012.118.118,0,0,1-.044-.022.051.051,0,0,1-.019-.042.206.206,0,0,1,0-.034.409.409,0,0,1,.01-.046l.057-.257a.408.408,0,0,0,.1.051.389.389,0,0,0,.139.021.483.483,0,0,0,.2-.046.568.568,0,0,0,.185-.142.7.7,0,0,0,.169-.454.419.419,0,0,0-.083-.273Zm-1.608.79a.379.379,0,0,1-.053.006.128.128,0,0,1-.081-.02.1.1,0,0,1-.025-.076.346.346,0,0,1,.008-.063c.005-.027.011-.052.017-.072l.082-.316a.637.637,0,0,0,.017-.089q.005-.045.005-.063a.2.2,0,0,0-.053-.143.194.194,0,0,0-.147-.055.367.367,0,0,0-.178.042,1.289,1.289,0,0,0-.186.128h-.006a.193.193,0,0,0-.035-.117.133.133,0,0,0-.111-.042.394.394,0,0,0-.1.016,1.059,1.059,0,0,0-.136.052l-.015.063.052-.013a.258.258,0,0,1,.055-.007.108.108,0,0,1,.074.018.1.1,0,0,1,.019.074.369.369,0,0,1-.01.072c-.006.03-.01.053-.014.068l-.147.637h.183l.168-.722a.5.5,0,0,1,.139-.114.287.287,0,0,1,.133-.039.114.114,0,0,1,.093.038.163.163,0,0,1,.031.1.291.291,0,0,1-.006.055c0,.023-.01.049-.017.077l-.1.367c-.006.023-.01.044-.013.061a.349.349,0,0,0,0,.048.14.14,0,0,0,.039.1.159.159,0,0,0,.119.04.3.3,0,0,0,.1-.016c.033-.01.079-.027.138-.052l.015-.063a.3.3,0,0,1-.052.013Zm-1.286-1.388a.075.075,0,0,0-.054-.022.143.143,0,0,0-.069.017.2.2,0,0,0-.067.07q-.043.065-.081.119c-.025.036-.071.1-.135.184l.035.032q.125-.093.2-.146l.119-.087a.314.314,0,0,0,.057-.053.1.1,0,0,0,.018-.064.07.07,0,0,0-.022-.049Zm-.078,1.065a.766.766,0,0,1-.064.189.415.415,0,0,1-.11.139.239.239,0,0,1-.155.055.164.164,0,0,1-.147-.072.384.384,0,0,1-.049-.213,1.124,1.124,0,0,1,.018-.193.739.739,0,0,1,.059-.19.391.391,0,0,1,.124-.163.267.267,0,0,1,.154-.05.164.164,0,0,1,.143.07.36.36,0,0,1,.05.209,1.111,1.111,0,0,1-.024.218Zm.124-.461a.353.353,0,0,0-.273-.107.54.54,0,0,0-.235.053.563.563,0,0,0-.183.139.679.679,0,0,0-.159.443.389.389,0,0,0,.1.283.35.35,0,0,0,.265.105.533.533,0,0,0,.247-.054.582.582,0,0,0,.182-.145.6.6,0,0,0,.114-.2.711.711,0,0,0,.039-.232.4.4,0,0,0-.1-.281Zm-.939-.566a.119.119,0,0,0-.091-.037.113.113,0,0,0-.087.04.138.138,0,0,0-.037.094.132.132,0,0,0,.037.091.112.112,0,0,0,.087.04.115.115,0,0,0,.091-.042.147.147,0,0,0,.037-.1.127.127,0,0,0-.036-.088Zm-.087,1.357a.471.471,0,0,1-.054,0,.126.126,0,0,1-.081-.021.1.1,0,0,1-.025-.077.312.312,0,0,1,.007-.06c.005-.024.011-.049.017-.075l.1-.418c.005-.02.009-.041.012-.061s0-.036,0-.048a.144.144,0,0,0-.036-.1.155.155,0,0,0-.117-.039.38.38,0,0,0-.1.017,1.017,1.017,0,0,0-.137.051l-.015.063.054-.012a.289.289,0,0,1,.057-.007.106.106,0,0,1,.074.018.1.1,0,0,1,.018.073.363.363,0,0,1-.007.067c-.005.026-.01.051-.015.074l-.1.418c-.005.025-.01.045-.013.062a.384.384,0,0,0,0,.047.139.139,0,0,0,.04.1.157.157,0,0,0,.118.04.361.361,0,0,0,.092-.014,1.429,1.429,0,0,0,.144-.05l.015-.063a.255.255,0,0,1-.052.012Zm-.71.03a.3.3,0,0,0,.115-.244.213.213,0,0,0-.06-.154.524.524,0,0,0-.194-.11.574.574,0,0,1-.148-.073.122.122,0,0,1-.044-.1.173.173,0,0,1,.049-.123.2.2,0,0,1,.146-.052.245.245,0,0,1,.039,0,.2.2,0,0,1,.033.01c.008.02.015.04.022.06a.274.274,0,0,0,.026.057.117.117,0,0,0,.039.042.106.106,0,0,0,.06.016.088.088,0,0,0,.071-.033.113.113,0,0,0,.027-.073.107.107,0,0,0-.032-.08.214.214,0,0,0-.079-.047.45.45,0,0,0-.1-.022c-.029,0-.057,0-.082,0a.422.422,0,0,0-.277.092.273.273,0,0,0-.112.218.23.23,0,0,0,.021.1.248.248,0,0,0,.057.074.317.317,0,0,0,.079.052.555.555,0,0,0,.086.036.507.507,0,0,1,.152.073.13.13,0,0,1,.052.107.193.193,0,0,1-.055.144.22.22,0,0,1-.16.053.157.157,0,0,1-.076-.015.144.144,0,0,1-.04-.031c-.005-.015-.012-.034-.019-.058a.285.285,0,0,0-.026-.061.127.127,0,0,0-.038-.042.1.1,0,0,0-.063-.018.09.09,0,0,0-.07.034.115.115,0,0,0-.029.074.154.154,0,0,0,.1.135.514.514,0,0,0,.242.052.443.443,0,0,0,.29-.094Zm-1.1-.158a.556.556,0,0,1-.136.109.254.254,0,0,1-.115.031.174.174,0,0,1-.089-.021.138.138,0,0,1-.054-.057.276.276,0,0,1-.026-.084.764.764,0,0,1,.026-.321.658.658,0,0,1,.084-.181.48.48,0,0,1,.122-.127.239.239,0,0,1,.139-.047.222.222,0,0,1,.086.015.144.144,0,0,1,.054.039.135.135,0,0,1,.029.055.272.272,0,0,1,.007.062Zm.03.2a.152.152,0,0,0,.112.041.308.308,0,0,0,.105-.016c.029-.01.073-.027.132-.051l.015-.063a.394.394,0,0,1-.107.018.123.123,0,0,1-.079-.02.1.1,0,0,1-.024-.076.35.35,0,0,1,.008-.064c.005-.029.011-.054.016-.074l.149-.634-.012-.015-.18.046a.378.378,0,0,0-.1-.042.448.448,0,0,0-.133-.019.461.461,0,0,0-.214.054.6.6,0,0,0-.18.141.7.7,0,0,0-.125.207.644.644,0,0,0-.045.237.438.438,0,0,0,.081.279.268.268,0,0,0,.223.1.259.259,0,0,0,.1-.018.519.519,0,0,0,.084-.042.466.466,0,0,0,.07-.052c.02-.018.037-.033.052-.045h.007a.154.154,0,0,0,.044.106Zm-1.115-.709a.467.467,0,0,1-.2.038h-.111l.142-.624h.128a.317.317,0,0,1,.116.018.194.194,0,0,1,.076.05.192.192,0,0,1,.042.072.3.3,0,0,1,.012.086.487.487,0,0,1-.017.123.389.389,0,0,1-.057.124.322.322,0,0,1-.134.113Zm.343-.585a.463.463,0,0,0-.274-.075h-.62l-.015.065a.557.557,0,0,1,.065.008.368.368,0,0,1,.067.017.052.052,0,0,1,.029.026.084.084,0,0,1,.008.037.169.169,0,0,1,0,.02c0,.007,0,.014,0,.02l-.235,1.016a.163.163,0,0,1-.025.06.115.115,0,0,1-.054.04.3.3,0,0,1-.065.013l-.07.007-.015.065h.6l.015-.065a.8.8,0,0,1-.08-.007.228.228,0,0,1-.059-.013.057.057,0,0,1-.032-.027.089.089,0,0,1-.008-.038s0-.01,0-.017a.125.125,0,0,1,0-.018l.1-.43h.17a.767.767,0,0,0,.225-.033.626.626,0,0,0,.194-.1.489.489,0,0,0,.135-.156.421.421,0,0,0,.053-.212.242.242,0,0,0-.107-.206Z" transform="translate(-235.343 -752.34)"/><path class="a" d="M844.937,674.206h.04c.046,0,.084-.015.084-.052s-.024-.055-.077-.055a.183.183,0,0,0-.047,0Zm0,.2h-.084v-.361a.713.713,0,0,1,.138-.011.223.223,0,0,1,.126.027.1.1,0,0,1,.035.079.092.092,0,0,1-.075.083v0a.107.107,0,0,1,.066.088.281.281,0,0,0,.026.09h-.09a.319.319,0,0,1-.029-.088c-.006-.039-.029-.057-.074-.057h-.04Zm-.222-.189a.28.28,0,0,0,.282.288.276.276,0,0,0,.275-.286.279.279,0,1,0-.557,0Zm.649,0a.371.371,0,1,1-.37-.361.363.363,0,0,1,.37.361Z" transform="translate(-809.129 -645.571)"/><path class="a" d="M774.957,790.706H775c.046,0,.084-.015.084-.053s-.024-.055-.077-.055a.183.183,0,0,0-.047,0Zm0,.2h-.084v-.361a.714.714,0,0,1,.138-.011.223.223,0,0,1,.126.027.1.1,0,0,1,.035.079.092.092,0,0,1-.074.084v0a.108.108,0,0,1,.065.088.263.263,0,0,0,.027.09h-.09a.288.288,0,0,1-.029-.088c-.006-.039-.029-.057-.074-.057h-.04Zm-.222-.189a.28.28,0,0,0,.282.289.276.276,0,0,0,.275-.286.279.279,0,1,0-.557,0Zm.649,0a.371.371,0,1,1-.37-.361.363.363,0,0,1,.37.361Z" transform="translate(-742.088 -757.178)"/><path class="a" d="M20.559,41.274a20,20,0,1,1,20-20,20.005,20.005,0,0,1-20,20m0-41a21,21,0,1,0,21,21,21,21,0,0,0-21-21" transform="translate(0.44 -0.27)"/></g></g></svg>